<svg xmlns="http://www.w3.org/2000/svg" width="664.427" height="589.543" viewBox="0 0 664.427 589.543">
  <g id="Group_69443" data-name="Group 69443" transform="translate(-190.236 -58.023)">
    <g id="Group_69444" data-name="Group 69444" transform="translate(256.942 444.04)">
      <path id="Path_10720" data-name="Path 10720" d="M162.841,467.208a171.991,171.991,0,0,1-2.342-24.4,188.434,188.434,0,0,1,.948-24.528,143.043,143.043,0,0,1,5.018-24.036,91.866,91.866,0,0,1,10.6-22.071,90.385,90.385,0,0,0-5.621,10.859,102.9,102.9,0,0,0-4.288,11.427,150.4,150.4,0,0,0-4.775,23.927,202.109,202.109,0,0,0-1.162,24.407q.042,6.116.469,12.226C161.925,459.09,162.289,463.16,162.841,467.208Z" transform="translate(-95.372 -303.541)" fill="#50661a"/>
      <path id="Path_10721" data-name="Path 10721" d="M188.779,411.065s-42.986,5.414-61.694-13.032c-13.883-13.688-.678-37.248,18.348-32.992C158.171,367.89,173.882,379.211,188.779,411.065Z" transform="translate(-121.31 -308.605)" fill="#5e7c24"/>
      <path id="Path_10722" data-name="Path 10722" d="M187.089,407.967c-6.034-1.837-11.973-3.987-17.82-6.368s-11.573-5.042-17.188-7.962a112.393,112.393,0,0,1-16.026-10.127,58.31,58.31,0,0,1-7.023-6.388,28.266,28.266,0,0,1-5.161-7.916,28.041,28.041,0,0,0,5.5,7.6,58.507,58.507,0,0,0,7.126,6.127,120.21,120.21,0,0,0,16.027,9.872c5.537,2.98,11.262,5.606,17.028,8.129q4.327,1.889,8.72,3.631C181.186,405.753,184.122,406.9,187.089,407.967Z" transform="translate(-119.62 -305.508)" fill="#50661a"/>
      <path id="Path_10723" data-name="Path 10723" d="M134.954,389.3l.042-6.342c-.012-2.108,0-4.212-.119-6.31a55.137,55.137,0,0,0-.557-6.253,21.056,21.056,0,0,0-.71-3.038,11.075,11.075,0,0,0-.567-1.452,12.68,12.68,0,0,0-.844-1.326,10.679,10.679,0,0,1,2.832,5.677,42.59,42.59,0,0,1,.786,6.352c.042,2.129.044,4.255-.1,6.374A53.323,53.323,0,0,1,134.954,389.3Z" transform="translate(-114.097 -308.576)" fill="#50661a"/>
      <path id="Path_10724" data-name="Path 10724" d="M121.692,381.358l3.762-.629c1.241-.234,2.478-.445,3.693-.734a23.34,23.34,0,0,0,3.538-1.108,5.1,5.1,0,0,0,2.76-2.332,4.436,4.436,0,0,1-2.429,2.977,14.1,14.1,0,0,1-3.654,1.38,23.553,23.553,0,0,1-3.825.534,20.888,20.888,0,0,1-3.845-.088Z" transform="translate(-121.065 -300.634)" fill="#50661a"/>
      <path id="Path_10725" data-name="Path 10725" d="M126.364,389.16c1.7-.255,3.384-.5,5.051-.827s3.314-.7,4.923-1.18a19.507,19.507,0,0,0,4.571-1.969,6.54,6.54,0,0,0,3.058-3.789c-.068.418-.146.848-.239,1.28-.15.407-.374.791-.567,1.2a8.336,8.336,0,0,1-1.836,1.906,15.282,15.282,0,0,1-4.714,2.276,29.028,29.028,0,0,1-5.09.992,28.355,28.355,0,0,1-5.156.113Z" transform="translate(-117.967 -297.423)" fill="#50661a"/>
      <path id="Path_10726" data-name="Path 10726" d="M140.816,393.864c.716-2.1,1.379-4.205,1.974-6.326s1.156-4.245,1.536-6.407a37.985,37.985,0,0,0,.588-13.084,22.042,22.042,0,0,1,1,6.6,39.46,39.46,0,0,1-.669,6.666,52.137,52.137,0,0,1-1.772,6.444A41.1,41.1,0,0,1,140.816,393.864Z" transform="translate(-108.382 -306.276)" fill="#50661a"/>
      <path id="Path_10727" data-name="Path 10727" d="M136.948,394.72c1.367-.372,2.7-.791,4-1.284a23.115,23.115,0,0,0,3.717-1.772,13.968,13.968,0,0,0,3.146-2.546,11.06,11.06,0,0,0,1.959-3.608,7.992,7.992,0,0,1-1.387,4.053,10.991,10.991,0,0,1-3.234,2.909,15.226,15.226,0,0,1-3.979,1.65,16.056,16.056,0,0,1-4.219.6Z" transform="translate(-110.948 -294.694)" fill="#50661a"/>
      <path id="Path_10728" data-name="Path 10728" d="M150.768,373.866a20.913,20.913,0,0,1,2.021,5.622,22.531,22.531,0,0,1,.472,6,18.5,18.5,0,0,1-1.261,5.9,17.69,17.69,0,0,1-3.048,5.143,26.832,26.832,0,0,0,2.363-5.38,23.035,23.035,0,0,0,1.005-5.713,30.232,30.232,0,0,0-.243-5.822,35.327,35.327,0,0,0-1.31-5.748Z" transform="translate(-102.986 -302.417)" fill="#50661a"/>
      <path id="Path_10729" data-name="Path 10729" d="M148.373,394.542c1.564-.78,3.1-1.451,4.571-2.244a17.943,17.943,0,0,0,4.124-2.849,6.215,6.215,0,0,1-1.522,2.153,10.144,10.144,0,0,1-2.16,1.528,12.469,12.469,0,0,1-2.436.974,10.3,10.3,0,0,1-2.577.438Z" transform="translate(-103.37 -292.083)" fill="#50661a"/>
      <path id="Path_10730" data-name="Path 10730" d="M156.554,382.587a18.494,18.494,0,0,1,1,3.278,21.247,21.247,0,0,1,.475,3.4,14.574,14.574,0,0,1-.171,3.458,6.664,6.664,0,0,1-1.306,3.194,10.49,10.49,0,0,0,.585-3.276,31.325,31.325,0,0,0-.049-3.323C156.98,387.094,156.71,384.871,156.554,382.587Z" transform="translate(-97.945 -296.633)" fill="#50661a"/>
      <path id="Path_10731" data-name="Path 10731" d="M174.09,421.357s-33.492-27.485-32.966-53.752c.391-19.492,26.576-26.108,36.57-9.368C184.385,369.445,186.969,388.637,174.09,421.357Z" transform="translate(-108.182 -319.115)" fill="#c4ce6e"/>
      <path id="Path_10732" data-name="Path 10732" d="M168.039,421.31a183.778,183.778,0,0,1-7.818-17.246q-3.491-8.812-6.1-17.955-1.261-4.577-2.2-9.242a78.755,78.755,0,0,1-1.417-9.406,58.379,58.379,0,0,1-.121-9.521,27.21,27.21,0,0,1,2.325-9.183,29.181,29.181,0,0,0-1.609,9.226,58.465,58.465,0,0,0,.524,9.357,122.63,122.63,0,0,0,3.906,18.376c1.621,6.066,3.653,12.02,5.744,17.952Q164.443,412.557,168.039,421.31Z" transform="translate(-102.132 -319.068)" fill="#8b9d36"/>
      <path id="Path_10733" data-name="Path 10733" d="M151.156,370.622c2.971-3.056,6.029-5.934,8.945-8.938,1.454-1.5,2.857-3.04,4.174-4.645a13.449,13.449,0,0,0,2.933-5.418,10.274,10.274,0,0,1-2,6.082,35.678,35.678,0,0,1-4.053,5,49.119,49.119,0,0,1-9.995,7.92Z" transform="translate(-101.525 -317.169)" fill="#8b9d36"/>
      <path id="Path_10734" data-name="Path 10734" d="M142.792,354.215c2.2,1.384,4.192,2.9,6.26,4.258a27.382,27.382,0,0,0,3.164,1.827,5.437,5.437,0,0,0,3.522.6,4.3,4.3,0,0,1-3.9.481,13.324,13.324,0,0,1-3.589-1.683A19.087,19.087,0,0,1,142.792,354.215Z" transform="translate(-107.072 -315.45)" fill="#8b9d36"/>
      <path id="Path_10735" data-name="Path 10735" d="M141.2,362.162c2.839,1.971,5.558,3.971,8.445,5.635a20.766,20.766,0,0,0,4.485,1.986,6.809,6.809,0,0,0,4.812-.181,5.786,5.786,0,0,1-5.041,1.3,14.848,14.848,0,0,1-4.982-1.835,25.765,25.765,0,0,1-7.72-6.9Z" transform="translate(-108.13 -310.179)" fill="#8b9d36"/>
      <path id="Path_10736" data-name="Path 10736" d="M152.946,376.831c1.988-1.008,3.926-2.062,5.859-3.1,1.918-1.069,3.826-2.14,5.659-3.323a62.142,62.142,0,0,0,5.321-3.78,39.619,39.619,0,0,0,4.722-4.572,20.144,20.144,0,0,1-3.96,5.422,33.926,33.926,0,0,1-5.3,4.165A40.047,40.047,0,0,1,152.946,376.831Z" transform="translate(-100.338 -310.252)" fill="#8b9d36"/>
      <path id="Path_10737" data-name="Path 10737" d="M144.857,373.273c1.278.653,2.526,1.268,3.78,1.836a25.76,25.76,0,0,0,3.813,1.412,14.872,14.872,0,0,0,3.922.577,12.664,12.664,0,0,0,3.987-.852,7.393,7.393,0,0,1-3.876,1.988,10.723,10.723,0,0,1-4.426-.3,14.463,14.463,0,0,1-3.964-1.822,13.538,13.538,0,0,1-3.236-2.835Z" transform="translate(-105.702 -302.81)" fill="#8b9d36"/>
      <path id="Path_10738" data-name="Path 10738" d="M173.4,370.965a18.6,18.6,0,0,1-2.525,5.457,21.655,21.655,0,0,1-4.031,4.546,17.971,17.971,0,0,1-5.229,3.131,16.007,16.007,0,0,1-5.915,1.134,32.259,32.259,0,0,0,5.444-2.174,24.227,24.227,0,0,0,4.758-3.208A37.52,37.52,0,0,0,173.4,370.965Z" transform="translate(-98.515 -304.341)" fill="#8b9d36"/>
      <path id="Path_10739" data-name="Path 10739" d="M151.652,382.573c1.751.419,3.289,1.018,4.855,1.529a30.674,30.674,0,0,0,4.822,1.281,5.334,5.334,0,0,1-2.638.582,9.263,9.263,0,0,1-2.649-.477,11.013,11.013,0,0,1-2.39-1.158,7.946,7.946,0,0,1-2-1.757Z" transform="translate(-101.196 -296.643)" fill="#8b9d36"/>
      <path id="Path_10740" data-name="Path 10740" d="M168.343,381.689a16.879,16.879,0,0,1-3.646,5.846A13.445,13.445,0,0,1,162,389.776a6.068,6.068,0,0,1-3.342,1.082,13.041,13.041,0,0,0,2.655-1.994c.794-.745,1.572-1.516,2.315-2.333C165.165,384.936,166.618,383.254,168.343,381.689Z" transform="translate(-96.546 -297.229)" fill="#8b9d36"/>
      <path id="Path_10741" data-name="Path 10741" d="M186.216,440.272s-43.3,1.557-60.285-18.485c-12.606-14.873,2.648-37.16,21.219-31.223C159.582,394.539,174.22,407.217,186.216,440.272Z" transform="translate(-121.315 -291.994)" fill="#c4ce6e"/>
      <path id="Path_10742" data-name="Path 10742" d="M184.066,437.7a183.776,183.776,0,0,1-17.274-7.757c-5.632-2.864-11.118-6.021-16.457-9.422q-3.974-2.6-7.765-5.473a78.752,78.752,0,0,1-7.287-6.114,58.376,58.376,0,0,1-6.391-7.058,27.211,27.211,0,0,1-4.333-8.423,29.181,29.181,0,0,0,4.9,7.982,58.465,58.465,0,0,0,6.585,6.669A122.631,122.631,0,0,0,151.13,419.3c5.23,3.475,10.693,6.595,16.186,9.658Q175.577,433.518,184.066,437.7Z" transform="translate(-119.164 -289.426)" fill="#8b9d36"/>
      <path id="Path_10743" data-name="Path 10743" d="M133.8,414.457c.205-4.258.593-8.439.792-12.62.1-2.088.13-4.17.056-6.244a13.448,13.448,0,0,0-1.386-6,10.275,10.275,0,0,1,2.522,5.886,35.673,35.673,0,0,1,.269,6.43,49.117,49.117,0,0,1-2.252,12.552Z" transform="translate(-113.39 -291.99)" fill="#8b9d36"/>
      <path id="Path_10744" data-name="Path 10744" d="M121.474,404.875c2.566-.419,5.059-.6,7.511-.95a27.383,27.383,0,0,0,3.581-.724,5.437,5.437,0,0,0,3.035-1.884,4.3,4.3,0,0,1-2.606,2.942,13.321,13.321,0,0,1-3.8,1.113,19.085,19.085,0,0,1-7.716-.5Z" transform="translate(-121.21 -284.211)" fill="#8b9d36"/>
      <path id="Path_10745" data-name="Path 10745" d="M125.537,412.926c3.433-.4,6.795-.7,10.06-1.363a20.764,20.764,0,0,0,4.677-1.479,6.809,6.809,0,0,0,3.488-3.32,5.787,5.787,0,0,1-2.919,4.31,14.845,14.845,0,0,1-4.949,1.921A25.763,25.763,0,0,1,125.537,412.926Z" transform="translate(-118.515 -280.599)" fill="#8b9d36"/>
      <path id="Path_10746" data-name="Path 10746" d="M140.153,419.381c.824-2.071,1.579-4.144,2.339-6.2.73-2.071,1.452-4.136,2.043-6.236a62.131,62.131,0,0,0,1.488-6.355,39.616,39.616,0,0,0,.515-6.552,20.14,20.14,0,0,1,.619,6.685,33.932,33.932,0,0,1-1.218,6.628A40.044,40.044,0,0,1,140.153,419.381Z" transform="translate(-108.822 -289.042)" fill="#8b9d36"/>
      <path id="Path_10747" data-name="Path 10747" d="M135.633,419.579c1.39-.356,2.733-.721,4.049-1.125a25.746,25.746,0,0,0,3.793-1.464,14.869,14.869,0,0,0,3.322-2.163,12.665,12.665,0,0,0,2.426-3.276,7.393,7.393,0,0,1-1.59,4.055,10.722,10.722,0,0,1-3.52,2.7,14.463,14.463,0,0,1-4.177,1.257A13.539,13.539,0,0,1,135.633,419.579Z" transform="translate(-111.82 -277.424)" fill="#8b9d36"/>
      <path id="Path_10748" data-name="Path 10748" d="M151.737,400.432a18.6,18.6,0,0,1,1.718,5.762,21.65,21.65,0,0,1-.015,6.076,17.968,17.968,0,0,1-1.849,5.808,16,16,0,0,1-3.685,4.765,32.251,32.251,0,0,0,2.643-5.233,24.229,24.229,0,0,0,1.444-5.553,37.518,37.518,0,0,0-.257-11.624Z" transform="translate(-103.679 -284.798)" fill="#8b9d36"/>
      <path id="Path_10749" data-name="Path 10749" d="M146.882,420.567c1.59-.844,3.139-1.413,4.652-2.067A30.7,30.7,0,0,0,156,416.27a5.334,5.334,0,0,1-1.593,2.182,9.264,9.264,0,0,1-2.3,1.4,11.018,11.018,0,0,1-2.559.713A7.948,7.948,0,0,1,146.882,420.567Z" transform="translate(-104.359 -274.294)" fill="#8b9d36"/>
      <path id="Path_10750" data-name="Path 10750" d="M156.391,409.7a16.879,16.879,0,0,1,1.134,6.8,13.443,13.443,0,0,1-.535,3.462,6.068,6.068,0,0,1-1.79,3.023,13.042,13.042,0,0,0,.671-3.252c.1-1.084.175-2.177.192-3.281C156.157,414.237,156.134,412.015,156.391,409.7Z" transform="translate(-98.842 -278.651)" fill="#8b9d36"/>
      <path id="Path_10751" data-name="Path 10751" d="M161.874,413.806s43.212,3.135,60.92-16.273c13.14-14.4-1.291-37.232-20.065-31.976C190.16,369.076,175.07,381.212,161.874,413.806Z" transform="translate(-94.417 -308.439)" fill="#5e7c24"/>
      <path id="Path_10752" data-name="Path 10752" d="M161.874,411.025c2.907-1.221,5.778-2.522,8.628-3.863q4.291-1.978,8.516-4.087c5.625-2.825,11.2-5.749,16.575-9.017a120.212,120.212,0,0,0,15.483-10.7,58.494,58.494,0,0,0,6.792-6.495,28.041,28.041,0,0,0,5.089-7.88,28.267,28.267,0,0,1-4.736,8.177,58.306,58.306,0,0,1-6.676,6.75,112.386,112.386,0,0,1-15.468,10.959q-8.161,4.826-16.743,8.859C173.621,406.411,167.8,408.873,161.874,411.025Z" transform="translate(-94.417 -305.658)" fill="#50661a"/>
      <path id="Path_10753" data-name="Path 10753" d="M189.782,389.63a53.349,53.349,0,0,1-1.1-6.269c-.256-2.108-.366-4.232-.437-6.36a42.6,42.6,0,0,1,.45-6.384,10.678,10.678,0,0,1,2.528-5.819,12.662,12.662,0,0,0-.773,1.369,11.071,11.071,0,0,0-.489,1.48,21.064,21.064,0,0,0-.548,3.071,55.142,55.142,0,0,0-.226,6.274c-.009,2.1.115,4.2.214,6.307Z" transform="translate(-76.925 -308.431)" fill="#50661a"/>
      <path id="Path_10754" data-name="Path 10754" d="M206.894,380.708a20.9,20.9,0,0,1-3.835.291,23.537,23.537,0,0,1-3.848-.331,14.091,14.091,0,0,1-3.722-1.186,4.435,4.435,0,0,1-2.583-2.845,5.1,5.1,0,0,0,2.879,2.183,23.338,23.338,0,0,0,3.591.92c1.229.224,2.475.37,3.727.538Z" transform="translate(-73.835 -300.579)" fill="#50661a"/>
      <path id="Path_10755" data-name="Path 10755" d="M204.174,388.666a28.353,28.353,0,0,1-5.155.16,29.024,29.024,0,0,1-5.136-.722,15.283,15.283,0,0,1-4.827-2.024,8.335,8.335,0,0,1-1.934-1.806c-.213-.4-.457-.766-.629-1.165-.116-.427-.217-.852-.307-1.266a6.539,6.539,0,0,0,3.254,3.622,19.513,19.513,0,0,0,4.668,1.725c1.632.4,3.3.669,4.978.918S202.464,388.5,204.174,388.666Z" transform="translate(-78.293 -297.127)" fill="#50661a"/>
      <path id="Path_10756" data-name="Path 10756" d="M184.887,394.412a41.1,41.1,0,0,1-2.981-5.959,52.135,52.135,0,0,1-2.11-6.341,39.45,39.45,0,0,1-1.02-6.622,22.039,22.039,0,0,1,.655-6.641,37.984,37.984,0,0,0,1.279,13.035c.493,2.138,1.179,4.228,1.872,6.316S184.057,392.356,184.887,394.412Z" transform="translate(-83.228 -305.745)" fill="#50661a"/>
      <path id="Path_10757" data-name="Path 10757" d="M191.994,394.879a16.055,16.055,0,0,1-4.245-.374,15.228,15.228,0,0,1-4.06-1.438,10.993,10.993,0,0,1-3.383-2.734,7.992,7.992,0,0,1-1.6-3.974,11.06,11.06,0,0,0,2.147,3.5,13.967,13.967,0,0,0,3.276,2.376,23.092,23.092,0,0,0,3.805,1.573C189.255,394.232,190.609,394.58,191.994,394.879Z" transform="translate(-83.253 -294.131)" fill="#50661a"/>
      <path id="Path_10758" data-name="Path 10758" d="M173.511,375.015a35.326,35.326,0,0,0-1,5.809,30.24,30.24,0,0,0,.065,5.826,23.03,23.03,0,0,0,1.306,5.652,26.836,26.836,0,0,0,2.644,5.247,17.686,17.686,0,0,1-3.315-4.974,18.5,18.5,0,0,1-1.57-5.821,22.531,22.531,0,0,1,.155-6.018A20.916,20.916,0,0,1,173.511,375.015Z" transform="translate(-88.031 -301.655)" fill="#50661a"/>
      <path id="Path_10759" data-name="Path 10759" d="M178.934,395.391a10.283,10.283,0,0,1-2.6-.3,12.459,12.459,0,0,1-2.484-.844,10.146,10.146,0,0,1-2.238-1.412,6.216,6.216,0,0,1-1.634-2.069,17.943,17.943,0,0,0,4.269,2.627C175.762,394.105,177.33,394.694,178.934,395.391Z" transform="translate(-89.04 -291.21)" fill="#50661a"/>
      <path id="Path_10760" data-name="Path 10760" d="M167.118,384.068c-.035,2.289-.186,4.524-.18,6.754a31.32,31.32,0,0,0,.126,3.321,10.486,10.486,0,0,0,.758,3.24,6.662,6.662,0,0,1-1.473-3.12,14.578,14.578,0,0,1-.353-3.444,21.25,21.25,0,0,1,.294-3.424A18.494,18.494,0,0,1,167.118,384.068Z" transform="translate(-91.684 -295.651)" fill="#50661a"/>
      <path id="Path_10761" data-name="Path 10761" d="M160.886,439.31s43.212,3.135,60.92-16.273c13.14-14.4-1.291-37.232-20.065-31.977C189.172,394.58,174.08,406.716,160.886,439.31Z" transform="translate(-95.072 -291.524)" fill="#8b9d36"/>
      <path id="Path_10762" data-name="Path 10762" d="M160.886,436.529q8.627-3.889,17.057-8.13c5.6-2.861,11.175-5.779,16.528-9.061A122.641,122.641,0,0,0,209.958,408.7a58.474,58.474,0,0,0,6.824-6.424,29.181,29.181,0,0,0,5.186-7.8,27.209,27.209,0,0,1-4.638,8.259,58.372,58.372,0,0,1-6.644,6.82,78.789,78.789,0,0,1-7.5,5.844q-3.891,2.732-7.96,5.186c-5.46,3.2-11.057,6.158-16.79,8.815a183.75,183.75,0,0,1-17.546,7.121Z" transform="translate(-95.072 -288.744)" fill="#5e7c24"/>
      <path id="Path_10763" data-name="Path 10763" d="M188.9,415.134a49.121,49.121,0,0,1-1.793-12.626,35.673,35.673,0,0,1,.5-6.416,10.274,10.274,0,0,1,2.735-5.79,13.448,13.448,0,0,0-1.6,5.949c-.15,2.07-.193,4.152-.172,6.242C188.613,406.678,188.849,410.871,188.9,415.134Z" transform="translate(-77.684 -291.517)" fill="#5e7c24"/>
      <path id="Path_10764" data-name="Path 10764" d="M205.906,406.212a19.087,19.087,0,0,1-7.729.216,13.33,13.33,0,0,1-3.761-1.252,4.3,4.3,0,0,1-2.5-3.035,5.438,5.438,0,0,0,2.964,1.993,27.382,27.382,0,0,0,3.552.854C200.874,405.425,203.357,405.7,205.906,406.212Z" transform="translate(-74.491 -283.665)" fill="#5e7c24"/>
      <path id="Path_10765" data-name="Path 10765" d="M203.186,414.17a25.764,25.764,0,0,1-10.353-.309,14.846,14.846,0,0,1-4.876-2.1,5.786,5.786,0,0,1-2.76-4.414,6.81,6.81,0,0,0,3.364,3.445,20.767,20.767,0,0,0,4.62,1.649C196.422,413.222,199.77,413.644,203.186,414.17Z" transform="translate(-78.948 -280.213)" fill="#5e7c24"/>
      <path id="Path_10766" data-name="Path 10766" d="M183.976,419.915a40.044,40.044,0,0,1-5.344-12.237,33.927,33.927,0,0,1-.975-6.668,20.141,20.141,0,0,1,.862-6.658,39.626,39.626,0,0,0,.276,6.567,62.145,62.145,0,0,0,1.255,6.405c.515,2.12,1.16,4.211,1.814,6.307C182.549,415.716,183.227,417.817,183.976,419.915Z" transform="translate(-83.959 -288.831)" fill="#5e7c24"/>
      <path id="Path_10767" data-name="Path 10767" d="M191.005,420.383a13.539,13.539,0,0,1-4.3-.173,14.468,14.468,0,0,1-4.129-1.409,10.725,10.725,0,0,1-3.419-2.827,7.393,7.393,0,0,1-1.441-4.11,12.669,12.669,0,0,0,2.3,3.363,14.871,14.871,0,0,0,3.241,2.283,25.768,25.768,0,0,0,3.737,1.6C188.3,419.563,189.63,419.976,191.005,420.383Z" transform="translate(-83.909 -277.217)" fill="#5e7c24"/>
      <path id="Path_10768" data-name="Path 10768" d="M172.622,400.519a37.516,37.516,0,0,0-.681,11.607,24.226,24.226,0,0,0,1.24,5.6,32.258,32.258,0,0,0,2.45,5.326,16,16,0,0,1-3.508-4.9,17.97,17.97,0,0,1-1.636-5.871,21.655,21.655,0,0,1,.207-6.072,18.6,18.6,0,0,1,1.928-5.7Z" transform="translate(-88.786 -284.74)" fill="#5e7c24"/>
      <path id="Path_10769" data-name="Path 10769" d="M177.946,420.895a7.944,7.944,0,0,1-2.66-.1,11.019,11.019,0,0,1-2.531-.806,9.267,9.267,0,0,1-2.25-1.479,5.335,5.335,0,0,1-1.512-2.239,30.689,30.689,0,0,0,4.379,2.392C174.859,419.368,176.387,419.993,177.946,420.895Z" transform="translate(-89.695 -274.296)" fill="#5e7c24"/>
      <path id="Path_10770" data-name="Path 10770" d="M166.232,409.572c.172,2.323.069,4.543.08,6.754-.023,1.1.009,2.2.072,3.286a13.038,13.038,0,0,0,.552,3.274,6.068,6.068,0,0,1-1.678-3.086,13.443,13.443,0,0,1-.408-3.479,16.878,16.878,0,0,1,1.382-6.749Z" transform="translate(-92.443 -278.737)" fill="#5e7c24"/>
      <path id="Path_10771" data-name="Path 10771" d="M171.344,401.869S159.363,360.232,174.7,338.9c11.383-15.828,36.7-6.416,35.427,13.039C209.28,364.966,200.516,382.235,171.344,401.869Z" transform="translate(-91.09 -330.907)" fill="#8b9d36"/>
      <path id="Path_10772" data-name="Path 10772" d="M169.568,400.864a183.763,183.763,0,0,1,3.349-18.637c1.417-6.158,3.154-12.244,5.163-18.247q1.559-4.485,3.433-8.858a78.766,78.766,0,0,1,4.17-8.549,58.378,58.378,0,0,1,5.3-7.909,27.209,27.209,0,0,1,7.125-6.242,29.18,29.18,0,0,0-6.56,6.683,58.459,58.459,0,0,0-4.879,8,122.622,122.622,0,0,0-7.211,17.347c-2.108,5.915-3.813,11.97-5.457,18.042Q171.576,391.617,169.568,400.864Z" transform="translate(-89.314 -329.902)" fill="#5e7c24"/>
      <path id="Path_10773" data-name="Path 10773" d="M178.157,346.472c4.181-.83,8.332-1.465,12.437-2.283,2.049-.411,4.078-.882,6.073-1.456a13.449,13.449,0,0,0,5.49-2.8,10.273,10.273,0,0,1-5.1,3.87,35.667,35.667,0,0,1-6.174,1.816,49.114,49.114,0,0,1-12.724.85Z" transform="translate(-83.618 -324.92)" fill="#5e7c24"/>
      <path id="Path_10774" data-name="Path 10774" d="M176.282,331.848c1.027,2.389,1.808,4.763,2.738,7.058a27.381,27.381,0,0,0,1.568,3.3,5.438,5.438,0,0,0,2.562,2.49,4.3,4.3,0,0,1-3.485-1.818,13.32,13.32,0,0,1-2-3.422A19.086,19.086,0,0,1,176.282,331.848Z" transform="translate(-84.865 -330.283)" fill="#5e7c24"/>
      <path id="Path_10775" data-name="Path 10775" d="M170.458,337.486c1.22,3.234,2.323,6.424,3.755,9.432a20.769,20.769,0,0,0,2.566,4.181,6.809,6.809,0,0,0,4.065,2.581,5.786,5.786,0,0,1-4.888-1.79,14.848,14.848,0,0,1-3.061-4.338,25.765,25.765,0,0,1-2.438-10.066Z" transform="translate(-88.724 -326.544)" fill="#5e7c24"/>
      <path id="Path_10776" data-name="Path 10776" d="M175.152,351.38c2.209.3,4.4.53,6.586.769,2.186.208,4.365.408,6.545.475a62.147,62.147,0,0,0,6.526-.093,39.607,39.607,0,0,0,6.482-1.085,20.143,20.143,0,0,1-6.337,2.217,33.934,33.934,0,0,1-6.726.421,40.045,40.045,0,0,1-13.076-2.7Z" transform="translate(-85.611 -317.329)" fill="#5e7c24"/>
      <path id="Path_10777" data-name="Path 10777" d="M167.166,348.712c.682,1.263,1.36,2.478,2.071,3.657a25.759,25.759,0,0,0,2.338,3.326,14.878,14.878,0,0,0,2.9,2.7,12.664,12.664,0,0,0,3.766,1.561,7.393,7.393,0,0,1-4.319-.562,10.722,10.722,0,0,1-3.472-2.762,14.464,14.464,0,0,1-2.23-3.749,13.536,13.536,0,0,1-1.056-4.17Z" transform="translate(-90.907 -319.099)" fill="#5e7c24"/>
      <path id="Path_10778" data-name="Path 10778" d="M195.2,359a18.6,18.6,0,0,1-5.176,3.061,21.655,21.655,0,0,1-5.9,1.455,17.973,17.973,0,0,1-6.082-.39,16,16,0,0,1-5.514-2.423,32.254,32.254,0,0,0,5.716,1.3,24.228,24.228,0,0,0,5.738.058A37.514,37.514,0,0,0,195.2,359Z" transform="translate(-87.348 -312.276)" fill="#5e7c24"/>
      <path id="Path_10779" data-name="Path 10779" d="M167.484,360.226c1.2,1.339,2.13,2.7,3.13,4.014a30.683,30.683,0,0,0,3.243,3.792,5.335,5.335,0,0,1-2.5-1.018,9.264,9.264,0,0,1-1.911-1.9,11.018,11.018,0,0,1-1.311-2.31,7.948,7.948,0,0,1-.65-2.581Z" transform="translate(-90.696 -311.462)" fill="#5e7c24"/>
      <path id="Path_10780" data-name="Path 10780" d="M183.8,366.778a16.878,16.878,0,0,1-6.319,2.744,13.439,13.439,0,0,1-3.489.318,6.066,6.066,0,0,1-3.366-1.005,13.039,13.039,0,0,0,3.318-.135c1.077-.163,2.154-.357,3.23-.608C179.343,367.649,181.5,367.089,183.8,366.778Z" transform="translate(-88.61 -307.118)" fill="#5e7c24"/>
      <path id="Path_10781" data-name="Path 10781" d="M143.438,423.747v7.822a2.711,2.711,0,0,0,2.684,2.737h53.77a2.711,2.711,0,0,0,2.684-2.737v-7.208a2.712,2.712,0,0,0-2.654-2.737l-53.77-.613a2.71,2.71,0,0,0-2.714,2.737Z" transform="translate(-106.643 -271.151)" fill="#a86f38"/>
      <path id="Path_10782" data-name="Path 10782" d="M144.981,429l1.913,40.371h48.915L198.985,429Z" transform="translate(-105.62 -265.849)" fill="#c79464"/>
    </g>
    <g id="man" transform="translate(241.657 58.023)">
      <path id="Path_2279" data-name="Path 2279" d="M1529.891,894.332a11.54,11.54,0,0,0-.49,2.5c0,1.346,1.054,1.547,4.4,2.042a9.492,9.492,0,0,1,2.4-.317,8.787,8.787,0,0,1,2.366.325c.276,0,14.287-.023,15.123-.023a2.286,2.286,0,0,1,1.807.563c.687-.067,1.275-.6,1.974-.6a1.375,1.375,0,0,1,.488.09c1.609.024,3.229.313,4.839.313a8.446,8.446,0,0,0,3.818-.8c.274,0,.759.42,1.129.609,1.491.311,3.045.034,4.524.473l.217-.079.231.011a1.535,1.535,0,0,1,1.022-.321c.362,0,.731.066,1.093.066a1.629,1.629,0,0,0,.859-.206c4.554.409,9.116.452,13.678.452,1.25,0,2.5,0,3.751,0q2.124,0,4.249.023a1.484,1.484,0,0,1,.981-.471,1.284,1.284,0,0,1,.93.48l10.672.559a5.915,5.915,0,0,1,1.837-.294,6.357,6.357,0,0,1,1.87.289q2.078-.023,4.157-.021c8.546,0,20.458.289,25.485.289,3.857,0,7.734-.259,11.6-.259,4.759,0,9.058.568,14.869.568,2.992,0,3.984-.156,5.042-.156,1.689,0,3.4.266,5.1.266a10.543,10.543,0,0,0,4.648-1.02c.61,0,1.2.958,2.076.958a1.219,1.219,0,0,0,.141-.007c1.549-.182,2.691-.264,2.691-1.626,0-1.1-1.016-1.744-2.31-1.783-6.546-.2-13.095-.649-19.638-.649-1.414,0-1.961.022-4.121.022-9.429,0-18.847-.488-28.27-.488-2.053,0-2.633.019-3.568.019-4.355,0-8.707-.349-13.058-.349-3.981,0-5.679.291-6.152.291a2.615,2.615,0,0,1-1.588-.549,1.824,1.824,0,0,1-1.059.326,5.38,5.38,0,0,1-1.481-.313l-15.26-.03a3.741,3.741,0,0,1-1.292.345,1.4,1.4,0,0,1-.949-.369,2.286,2.286,0,0,0-1.206-.319c-.962,0-1.939.467-2.9.467a2.284,2.284,0,0,1-1.234-.337,3.2,3.2,0,0,0-.463-.032c-.581,0-1.153.135-1.732.167-22.835-.249-20.522-.328-21.285-.328-1.039,0-1.986.321-2.974.321a3.907,3.907,0,0,1-.418-.021,1.953,1.953,0,0,0-.96-.2c-.274,0-.549.026-.821.026a1.834,1.834,0,0,1-1.106-.292,4.47,4.47,0,0,1-1.7.3c-1.039,0-2.083-.244-3.122-.244a5.2,5.2,0,0,0-.818.06,4.09,4.09,0,0,0-1.97-.433c-.495,0-1,.053-1.5.1a12.944,12.944,0,0,0-1.453-.077c-1.611,0-3.23.234-4.843.234a9.979,9.979,0,0,1-3.442-.531h-2.291a3.694,3.694,0,0,1-1.615.368,5.217,5.217,0,0,1-1.822-.368Z" transform="translate(-1528.57 -894.332)" fill="#a86f38"/>
      <path id="Path_2280" data-name="Path 2280" d="M1615.486,894.332a5.084,5.084,0,0,1-3.431,1.234c-1.931,0-3.9-.812-5.831-.812-.15,0-.3,0-.45.015-.163-.066-.244-.137-.244-.212s.111-.225.219-.225Z" transform="translate(-1461.962 -894.332)" fill="#fdf6e9"/>
      <path id="Path_2281" data-name="Path 2281" d="M1607.265,894.332c0,.045-.005.09-.005.135a1.485,1.485,0,0,0,.03.3l-3.493.268.032-.705Z" transform="translate(-1463.478 -894.332)" fill="#fdfdfd"/>
      <path id="Path_2282" data-name="Path 2282" d="M1615.5,894.332a5.172,5.172,0,0,1-2.051.78,1.743,1.743,0,0,1-1.386-.78Z" transform="translate(-1456.246 -894.332)" fill="#fdf6e8"/>
      <path id="Path_2283" data-name="Path 2283" d="M1551.48,1076.311c2.224,12.457,1.273,14.362,8.516,14.362.625,0,1.251-.019,1.876-.028.367-.471.728-.765,1.08-.765.318,0,.632.242.932.808,4.536,1.2,9.27,1.241,13.937,1.6,1.6.122,3.005.645,4.536.84a10.963,10.963,0,0,0,1.943.165,16,16,0,0,0,2.006-.137,28.273,28.273,0,0,1,7.585,1.065,3.727,3.727,0,0,0,1.366.21c.425,0,.855-.034,1.281-.034a3.55,3.55,0,0,1,1.522.276h.053c5.992,0,45.247,4.434,51.238,4.751,2.084.109,4.458,1.151,5.268,3.412.37,1.029,26.678,30.805,32.609,35.866a3.9,3.9,0,0,0,2.341,1.2c.443,0,1.436-.259,1.436-.91,0-2.659-10.6-34.234-10.6-34.782,0-.874.548-1.166,1.948-1.166.407,0,10.655.733,14.925,1.581a3.817,3.817,0,0,0,.98.105c.334,0,.674-.023,1.008-.023a3.107,3.107,0,0,1,1.438.278,11.178,11.178,0,0,1,1.249-.068c2.459,0,4.854.711,7.316.711,2.8,0,3.408-.109,4.033-.651a1.484,1.484,0,0,0,.632-1.114,1.694,1.694,0,0,0-.534-1.114,11.029,11.029,0,0,0,1.095-5.36c0-1.074-.06-2.152-.06-3.225a18.657,18.657,0,0,1,.176-2.636c0-.549-.412-.9-.412-1.384v-.015a1.1,1.1,0,0,0,.352-.894c0-.206-.025-.416-.025-.621a1.121,1.121,0,0,1,.311-.859l.076-18.827a3.766,3.766,0,0,0,.331-1.6,9.879,9.879,0,0,0-.211-1.772,7.689,7.689,0,0,0,.694-3.435c0-1.432-.231-2.88-.231-4.318,0-.189,1.522-41.848,1.522-46.583,0-1.367-.033-2.735-.111-4.1a1.255,1.255,0,0,1-.158-.6c0-.652.534-1.2.8-1.806-.086-1.024-.122-2.049-.122-3.071,0-4.07.552-8.135.552-12.185,0-2.362-.152-2.752-.152-4.04,0-1.864.3-3.712.3-5.557a11.682,11.682,0,0,0-.269-2.623,8.492,8.492,0,0,0,.078-1.234c0-.739-.06-1.481-.06-2.22a6.76,6.76,0,0,1,.341-2.318c.325-20.6,1.224-47.567,1.224-51.525,0-1.635-.734-3.294-.734-4.941a4.208,4.208,0,0,1,.717-2.426c-.087-1.519-.265-3.036-.265-4.556,0-.347.009-.694.031-1.041a2,2,0,0,0,.056-.482c0-.375-.08-.744-.08-1.132,0-1.337,1.556-2.239,1.556-3.452,0-1.161-1.818-1.153-5.88-1.406a24.092,24.092,0,0,0-3.37-.2c-1.06,0-2.124.034-3.185.034a22.855,22.855,0,0,1-3.817-.262c-6.891.071-13.784.167-20.675.167-7.125,0-14.249-.1-21.369-.431a3.731,3.731,0,0,0-.854-.084c-.365,0-.732.03-1.1.03a2.9,2.9,0,0,1-1.416-.294c-5.392.18-10.781.249-16.172.249-18.918,0-28.16-.681-45.99-.681-2.982,0-5.963.01-8.943.01-.156,0-12.348-.013-13.908-.021-.458,0-.955-.114-1.4-.114-1.523,0-.971,1.389-1.663,1.389-.839,0-.581-1.507-3.207-1.507-.739,0-1.5.113-2.214.113-23.29,0-26.032-.57-28.75-.57-1.612,0-3.217.144-4.837.144-1.282,0-1.531-.077-2.147-.077-1.981,0-2.865.838-2.865,2.321,0,1.614,1.756,6.06,1.756,11.762,0,.589-.02,1.179-.062,1.772.141.266.381.534.381.8,0,.17-.1.341-.39.512,1.3,3.1,1.409,4.415,3.377,21.6a.949.949,0,0,1,.521.864c0,.353-.138.724-.138,1.076a.974.974,0,0,0,.06.356,35.62,35.62,0,0,1,1.006,6.834c0,.411-.018.821-.058,1.234a12.222,12.222,0,0,0,4.215.984c2.351.407,4.859-.039,7.1.962,1.257.073,2.595-.156,3.659.683.363-.006.726-.017,1.086-.017a7.068,7.068,0,0,1,2.094.253c8.206,1.157,16.61,1.237,24.648,3.281a9.227,9.227,0,0,1,2.076-.4c.794,0,1.449.339,1.758,1.521,2.346,5.739,2.647,11.762,3.377,17.711.365,2.977,1.712,7.08,1.712,8.906,0,.133.67,3.345-6.435,3.345-2.468,0-2.94-.538-4.249-.538a6.023,6.023,0,0,0-3.593,1.479,1.682,1.682,0,0,0-.794,1.423c0,.87,5.345,12.956,5.345,13.595,0,.881-1.148,1.191-1.6,1.191a3.275,3.275,0,0,1-2.275-1.393c-4.3-5.089-10.721-8.452-15.222-13.363-1.629-1.778-3.835-2.188-6.572-2.188-2.3,0-4.562.343-6.853.343-.706,0-.937-.028-1.2-.028a2.181,2.181,0,0,0-2.223,1.2c.946,18.433.821,8.156,11.672,87A21.412,21.412,0,0,1,1551.48,1076.311Z" transform="translate(-1543.955 -890.843)" fill="#a86f38"/>
      <path id="Path_2285" data-name="Path 2285" d="M1533.246,899.18c1.408,0,2.824.156,4.232.156.287,0,.576-.008.863-.022a13.528,13.528,0,0,1-4.087.527c-1.389,0-2.784-.109-4.173-.109-.159,0-.317,0-.477.006A10.4,10.4,0,0,1,1533.246,899.18Z" transform="translate(-1528.394 -890.09)" fill="#fdfdfd"/>
      <path id="Path_2286" data-name="Path 2286" d="M1527.44,905.889a10.448,10.448,0,0,1,.392-2.959l.058,0c.337,0,.856.143.856.274a3.282,3.282,0,0,0-.7,2.424c0,.3.01.608.01.909a3.74,3.74,0,0,1-.422,1.991A20.9,20.9,0,0,1,1527.44,905.889Z" transform="translate(-1530.287 -886.811)" fill="#f6c972"/>
      <path id="Path_2287" data-name="Path 2287" d="M1527.972,940.785c0-1.069.218-2.147.218-3.216,0-.083,0-.163,0-.246a6.913,6.913,0,0,1,.652,3.023,12.6,12.6,0,0,1-.351,2.749A4.806,4.806,0,0,1,1527.972,940.785Z" transform="translate(-1529.821 -856.716)" fill="#fdfdfd"/>
      <path id="Path_2288" data-name="Path 2288" d="M1593.31,897.593a4.746,4.746,0,0,1-1.4-.208,3.224,3.224,0,0,1,2.061-.632c.784,0,1.583.159,2.366.159h.1A9.676,9.676,0,0,1,1593.31,897.593Z" transform="translate(-1473.882 -892.214)" fill="#fefefe"/>
      <path id="Path_2289" data-name="Path 2289" d="M1598.814,1001.8c-.32,0-.649-.347-.969-.347a.489.489,0,0,0-.4.24v-.079c0-.234-.038-.5-.038-.739,0-.562.225-.851.88-.851,1.056,0,.748.977.851,1.625A.444.444,0,0,1,1598.814,1001.8Z" transform="translate(-1469.068 -801.852)" fill="#fdfdfd"/>
      <path id="Path_2290" data-name="Path 2290" d="M1577.5,897.78a1.091,1.091,0,0,0,.114-.591l0-.176c0-.486.1-.767.636-.767.825,0,.938.878,1.16,1.524Z" transform="translate(-1486.487 -892.657)" fill="#fefefe"/>
      <path id="Path_2291" data-name="Path 2291" d="M1609.881,897.03a5.778,5.778,0,0,1,2.437-.579,5.15,5.15,0,0,1,2.327.572Z" transform="translate(-1458.155 -892.478)" fill="#fefefe"/>
      <path id="Path_2293" data-name="Path 2293" d="M1592.85,897.371c-.444,0-.9.079-1.346.079a1.871,1.871,0,0,1-1.423-.535,1.232,1.232,0,0,0,.3.034c.519,0,1.078-.263,1.6-.263a1.173,1.173,0,0,1,1.076.69C1592.987,897.372,1592.918,897.371,1592.85,897.371Z" transform="translate(-1475.479 -892.272)" fill="#fefefe"/>
      <path id="Path_2294" data-name="Path 2294" d="M1569.831,897.6a4.222,4.222,0,0,1,1.924-.519,3.366,3.366,0,0,1,1.781.525Z" transform="translate(-1493.197 -891.926)" fill="#fefefe"/>
      <path id="Path_2297" data-name="Path 2297" d="M1603.616,992.719a4.979,4.979,0,0,1-.536,1.854c0-.034,0-.069,0-.1,0-.521-.172-1.059-.172-1.58a1.539,1.539,0,0,1,.457-1.149A2.047,2.047,0,0,1,1603.616,992.719Z" transform="translate(-1464.255 -809.105)" fill="#fdfdfd"/>
      <path id="Path_2298" data-name="Path 2298" d="M1529.239,989.215a3.441,3.441,0,0,1,.519-1.7q.051,1.688.1,3.377A2.673,2.673,0,0,1,1529.239,989.215Z" transform="translate(-1528.713 -812.805)" fill="#fdfdfd"/>
      <path id="Path_2299" data-name="Path 2299" d="M1589.018,1002.722a3.377,3.377,0,0,1-1.665-.476l3.326-.028A3.145,3.145,0,0,1,1589.018,1002.722Z" transform="translate(-1477.866 -799.937)" fill="#fdfdfd"/>
      <path id="Path_2300" data-name="Path 2300" d="M1528.366,955.533a2.747,2.747,0,0,1,.039-.476c.585.412,1.176.823,1.176,1.367a1.482,1.482,0,0,1-.638,1.042A4.04,4.04,0,0,1,1528.366,955.533Z" transform="translate(-1529.477 -841.201)" fill="#fdfdfd"/>
      <path id="Path_2301" data-name="Path 2301" d="M1583.979,1003.384c-.519,0-1.05-.088-1.569-.088-.112,0-.225,0-.338.013a2.714,2.714,0,0,1,1.8-.572c.565,0,1.142.1,1.71.12A2.344,2.344,0,0,1,1583.979,1003.384Z" transform="translate(-1482.486 -799.483)" fill="#fdfdfd"/>
      <path id="Path_2302" data-name="Path 2302" d="M1586,894.623a1.528,1.528,0,0,1,1.11.542.96.96,0,0,1-.744.424c-.495,0-.962-.469-1.451-.557A1.908,1.908,0,0,1,1586,894.623Z" transform="translate(-1479.997 -894.077)" fill="#fdfdfd"/>
      <path id="Path_2303" data-name="Path 2303" d="M1600.648,894.624c.39,0,.79.058,1.178.058a2.838,2.838,0,0,0,.311-.015,2.214,2.214,0,0,1-1.545.482c-.326,0-.656-.028-.982-.028-.12,0-.24,0-.36.015A1.853,1.853,0,0,1,1600.648,894.624Z" transform="translate(-1467.458 -894.076)" fill="#fdfdfd"/>
      <path id="Path_2304" data-name="Path 2304" d="M1573.92,894.976c-.562.013-1.127.765-1.689.765-.285,0-.568-.2-.851-.778Z" transform="translate(-1491.841 -893.78)" fill="#fdfdfd"/>
      <path id="Path_2305" data-name="Path 2305" d="M1583.115,894.941c-.281.542-.564.726-.849.726-.461,0-.928-.478-1.391-.7Z" transform="translate(-1483.535 -893.799)" fill="#fdfdfd"/>
      <path id="Path_2306" data-name="Path 2306" d="M1529.453,1001.007c0-.424.362-.93.362-1.352a.573.573,0,0,0-.078-.3,3.418,3.418,0,0,1,.538,2.374C1529.639,1001.569,1529.453,1001.309,1529.453,1001.007Z" transform="translate(-1528.526 -802.444)" fill="#fdfdfd"/>
      <path id="Path_2308" data-name="Path 2308" d="M1537.471,1008.816c-.424,0-.857-.066-1.282-.066-.079,0-.155,0-.234.008a1.721,1.721,0,0,1,1.256-.463c.473,0,.958.111,1.429.111.068,0,.135,0,.2-.008A2.1,2.1,0,0,1,1537.471,1008.816Z" transform="translate(-1522.838 -794.62)" fill="#fdfdfd"/>
      <path id="Path_2309" data-name="Path 2309" d="M1529.718,1008.329c0-.315.272-.638,1-.979a2.42,2.42,0,0,0-.184.934,3.768,3.768,0,0,0,.264,1.294C1530.229,1009.169,1529.718,1008.758,1529.718,1008.329Z" transform="translate(-1528.294 -795.447)" fill="#fdfdfd"/>
      <path id="Path_2310" data-name="Path 2310" d="M1554.5,898.9c.4,0,.8.053,1.193.053.1,0,.2,0,.294-.011a2.076,2.076,0,0,1-1.4.465c-.475,0-.958-.092-1.433-.114A2.139,2.139,0,0,1,1554.5,898.9Z" transform="translate(-1507.789 -890.333)" fill="#fefefe"/>
      <path id="Path_2311" data-name="Path 2311" d="M1601.441,897.546a3.912,3.912,0,0,1-1.9-.567,1.155,1.155,0,0,1,.816-.439c.613,0,1.067.774,1.646.951A2.889,2.889,0,0,1,1601.441,897.546Z" transform="translate(-1467.204 -892.399)" fill="#fefefe"/>
      <path id="Path_2313" data-name="Path 2313" d="M1591.855,927.116c.529,0,.87.365,1.181.954a3.6,3.6,0,0,0-.54-.041,2.906,2.906,0,0,0-2.345,1.175,1.636,1.636,0,0,1-.208-.722C1589.943,927.607,1591.471,927.116,1591.855,927.116Z" transform="translate(-1475.6 -865.648)" fill="#f2e6cc"/>
      <path id="Path_2314" data-name="Path 2314" d="M1530.161,950.306c-.868-.452-1.363-1.016-1.363-1.725a1.83,1.83,0,0,1,.082-.523c.043-.137.473-.156.724-.229Z" transform="translate(-1529.099 -847.525)" fill="#fae4b9"/>
      <path id="Path_2315" data-name="Path 2315" d="M1547.267,900.291c.656,0,.806.832,1.5,1.282-.427.039-.795.1-1.1.1-.93,0-.947-.729-.947-.759,0-.223.1-.521.2-.557A1.094,1.094,0,0,1,1547.267,900.291Z" transform="translate(-1513.415 -889.118)" fill="#f9deab"/>
      <g id="Group_69450" data-name="Group 69450" transform="translate(-53.228 23.399)">
        <path id="Path_2284" data-name="Path 2284" d="M1632.751,930.662a6.944,6.944,0,0,0-3.39-1.255,3.479,3.479,0,0,0-1.143.2q-10.4-2.05-20.8-4.1a1.274,1.274,0,0,0-1-.542c-.756,0-1.51.727-2.267.727a1.091,1.091,0,0,1-.581-.165c-1.334-.946-2.627-1.922-4.082-1.922-1.558,0-1.95.909-2.88.909-1.5,0-2.692-2.083-5.253-2.083-2.413,0-3.916,2.326-3.916,6.26,0,6.634,4.577,38.508,4.623,41.032a1.431,1.431,0,0,1,.042.353c0,.619-.362,1.238-.362,1.858a1.344,1.344,0,0,0,.307.868c.028,7.33,2.47,15.237,2.47,18.013,0,.8-.105,1.1-.105,2.208,0,4.311,2.041,7.367,5.15,7.367a93.427,93.427,0,0,1,13.686-.878c3.821,0,7.643.124,11.466.124,4.755,0,5.05-.663,7.561-.663a6.616,6.616,0,0,1,2.777.562,25.32,25.32,0,0,1,8.91-1.38c10.977,0,7.631,1.393,11.987,7.1,16.574,21.709,16.445,23.857,18.26,23.857a2.915,2.915,0,0,0,2.611-2.639c0-1.451-6.542-25.533-6.542-26.263a1.539,1.539,0,0,1,.669-1.4c1.081-.693,2.021-1.912,3.484-1.912,1.42,0,2.086,1.1,4.9,1.1a14.523,14.523,0,0,0,7.609-2.662,2.292,2.292,0,0,0,.792-2.06c0-.337-4.059-49.894-6.573-51.325-.448-1.834-1.151-2.8-2.137-2.8a2.937,2.937,0,0,0-1.732.764c-9.43-4.389-19.358-4.6-29.118-6.24a.892.892,0,0,0-.709-.421c-.626,0-1.237.807-1.863.807a.8.8,0,0,1-.576-.269c-.386-1.531-.957-2.013-1.606-2.013a5.368,5.368,0,0,0-2.123.875c-.151-.078-.191-.111-.191-.121s.055-.006.055-.02a13.289,13.289,0,0,0-3.537-1.407c-1.138,0-1.164,1.478-1.234,5.493,3.144.165,2.252,5.86,3.981,6.334-1.483-.8-1.533-5.16-3.931-6.331a1.209,1.209,0,0,0-.819-.333c-.9,0-1.767,1.023-2.665,1.023a1.3,1.3,0,0,1-.97-.481c-.427-.643-1.116-.417-1.543-.774a.191.191,0,0,0-.123-.057c-.041,0-.063.023-.063.05s.033.067.108.067c.181,0,.322-.165.585-.165.508,0,.827.646,1.212,1.047a.957.957,0,0,0,.59.229,1.185,1.185,0,0,0,.794-.4c1.016-.973,2.473-1.467,2.473-3.547C1636.018,929.9,1633.744,931.681,1632.751,930.662Z" transform="translate(-1585.631 -921.588)" fill="#ece7cc"/>
        <path id="Path_2292" data-name="Path 2292" d="M1621.121,923.034a4.851,4.851,0,0,0-1.727.591c.248.452.493.609.739.609.561,0,1.119-.825,1.68-.825a.627.627,0,0,1,.448.2A1.482,1.482,0,0,0,1621.121,923.034Z" transform="translate(-1607.361 -892.618)" fill="#fdfdfd"/>
        <path id="Path_2295" data-name="Path 2295" d="M1612.485,908.124l.027,0c.341,0,.774.371,1.078.371.337,0,.347-.5.347-.51,0-.658-1.1-.639-1.444-1.172C1612.491,907.249,1612.487,907.686,1612.485,908.124Z" transform="translate(-1577.541 -906.812)" fill="#fcf0d9"/>
        <path id="Path_2296" data-name="Path 2296" d="M1611.286,919.178c0,.315-.041.638-.041.953a1.646,1.646,0,0,0,.41,1.2c.158-.477.559-.992.559-1.442,0-.336-.222-.636-.932-.855C1611.284,919.081,1611.286,919.129,1611.286,919.178Z" transform="translate(-1572.581 -896.12)" fill="#fdfdfd"/>
        <path id="Path_2307" data-name="Path 2307" d="M1625.178,937.339a1.16,1.16,0,0,0,.542.857.285.285,0,0,1-.092-.2c0-.345.709-.684.709-1.027,0-.161-.154-.323-.608-.486A1.156,1.156,0,0,0,1625.178,937.339Z" transform="translate(-1622.281 -880.854)" fill="#fdfdfd"/>
        <path id="Path_2312" data-name="Path 2312" d="M1609.351,928.357c.165-1.661.769-2.66,2.034-2.66a4.028,4.028,0,0,1,1.474.337,4.06,4.06,0,0,0-3.177-1.213c-.861,0-1.742.126-2.6.126-.2,0-.4-.007-.6-.024,1.2.568,1.835.866,1.835,1.262,0,.439-.774,1-2.407,2.173v0a1.452,1.452,0,0,0,1.135.577c.756,0,1.513-.577,2.269-.577h.034Z" transform="translate(-1560.89 -891.055)" fill="#f1ece1"/>
        <path id="Path_2316" data-name="Path 2316" d="M1604.583,925.484a3.153,3.153,0,0,0-1.4.6c.24.667.469.9.69.9.479,0,.928-1.067,1.406-1.067a.378.378,0,0,1,.252.1A1.206,1.206,0,0,0,1604.583,925.484Z" transform="translate(-1545.755 -890.475)" fill="#f2e4c9"/>
        <path id="Path_2321" data-name="Path 2321" d="M1605.067,926.866c1.177,1.4,1.408,3.934,4.089,3.934a5.352,5.352,0,0,0,1.007-.1c-1.721-.666-2.685-1.382-2.685-2.966,0-.437.064-.694.064-.814,0-.3-.239-.394-.583-.394a12.807,12.807,0,0,0-1.892.345Z" transform="translate(-1555.662 -889.565)" fill="#f1ece1"/>
        <path id="Path_2322" data-name="Path 2322" d="M1612.209,927.268c-.259-.782-.4-1.2-.673-1.2-.32,0-.825.57-1.918,1.806a11.192,11.192,0,0,1,2.229-.641,1.817,1.817,0,0,1,.362.036Z" transform="translate(-1568.81 -889.966)" fill="#f1ece1"/>
        <path id="Path_2323" data-name="Path 2323" d="M1605.347,938.461c0,.323.533.386.823.538.21-.441.422-.881.632-1.322C1606.245,937.874,1605.347,937.887,1605.347,938.461Z" transform="translate(-1552.377 -879.807)" fill="#8eadbc"/>
      </g>
      <g id="Group_177" data-name="Group 177" transform="translate(38.89 59.738)">
        <path id="Path_2326" data-name="Path 2326" d="M1564.58,974.715s-6.406-13.4-9.361-18.056c-2.125-3.347-4.982-8.525-4.982-12.682,0-5.85,6.367-7.389,8.467-7.389a6.226,6.226,0,0,1,1.277.112,22.015,22.015,0,0,1-.886-5.608c0-2.5.74-4.9,3.576-4.9,5.239,0,22.906,7.367,31.675,9.418,4.185.979,6.03,3.853,6.03,6.907a9.393,9.393,0,0,1-5.842,8.379Z" transform="translate(-1521.368 -926.193)" fill="#2b2b2b"/>
        <path id="Path_2327" data-name="Path 2327" d="M1589.4,939.364c.9,0,2.092-.649,3.645-2.614a15.047,15.047,0,0,1,.063,1.571c0,6.761-2.22,26.527-4.773,27.625-2.8,1.207-6.388,1.134-7.487,2.473a6.09,6.09,0,0,0-.416,2.91,92.919,92.919,0,0,0,.737,9.343s-4.222,8.325-7.554,8.325c-3.485,0-10.809-10.3-10.809-10.3s.3-4.468.3-9.485a53.468,53.468,0,0,0-.834-10.888,12.416,12.416,0,0,1-2.593.263c-7.044,0-7.678-5.527-7.678-7.106,0-3.99,3.113-7.417,6.795-7.417,4.8,0,5.537,6.467,5.537,6.467l3.4-.09s.923-7.954,2-10.247a6.606,6.606,0,0,0,3.894,1.436,5.581,5.581,0,0,0,4.025-1.832,3.075,3.075,0,0,0,2.7,1.732c1.479,0,3.644-1.02,6.662-4.622C1587.006,936.909,1587.647,939.364,1589.4,939.364Z" transform="translate(-1519.827 -916.956)" fill="#f6a88a"/>
        <path id="Path_2328" data-name="Path 2328" d="M1588.552,970.889c-5,0-14.627-7.547-14.627-7.547-3.422-1.292-8.113-3.219-12.285-3.219a8.755,8.755,0,0,0-5.687,1.8c-5.518,4.483-21.114,68.462-21.114,84.843,0,5.194,1.4,5.177,2.364,5.177,6.491,0,49.16-5.436,49.16-5.436l21.731-.57,7.709-.2s22.921,12.943,28.49,16.573,17.6,8.977,17.6,8.977l17.09-24.991-33.185-20.041s0-.034,0-.09a2.534,2.534,0,0,0-1.77-2.55s-12.823-35.463-15.547-45.715-8.833-20.458-14.177-20.458c-5.1,0-14.51,6.356-14.51,6.356S1593.436,970.889,1588.552,970.889Z" transform="translate(-1534.84 -898.853)" fill="#f6c15c"/>
        <path id="Path_2329" data-name="Path 2329" d="M1583.561,998.276a65.224,65.224,0,0,0-1,9.928,12.751,12.751,0,0,0,.673,4.761l-5.216-2.959Z" transform="translate(-1497.058 -863.124)" fill="#f6a65c"/>
        <path id="Path_2330" data-name="Path 2330" d="M1567.945,998.111a31.664,31.664,0,0,0,6.951-1.333c3.245-.939,5.549-2.447,7.3-2.447,2.329,0,2.957,3.27,5.9,3.27.643,0,2.042-.248,3.935-.248,1.837,0,3.493.272,3.493,1.26,0,1.541-2.362,4.329-3.056,6.011-.832,2.012-3.881,10.524-5.454,10.524-1.678,0-15.359-1.159-19.869-1.159a8.055,8.055,0,0,0-1.238.064Z" transform="translate(-1507.656 -866.576)" fill="#f6a88a"/>
        <path id="Path_2331" data-name="Path 2331" d="M1570.978,960.968s-3.248,5.748-7.333,8.31c0,0,4.292,7.894,6.23,7.894,1.888,0,4.723-13.291,4.723-14.924,0-1.933-3.821-2.976-3.821-2.976Z" transform="translate(-1509.637 -897.251)" fill="#f2f1ec"/>
        <path id="Path_2332" data-name="Path 2332" d="M1570.613,970.377s-3.388,7.074-5.111,7.074c-1.016,0-9.821-11.748-9.821-14.465,0-2.336,4.016-4.972,4.016-4.972l-.115,2.079S1566.046,968.986,1570.613,970.377Z" transform="translate(-1516.605 -898.351)" fill="#f2f1ec"/>
        <path id="Path_2333" data-name="Path 2333" d="M1571.885,994.121l-2.688,23.48-6.98.183,2.177-24.977Z" transform="translate(-1510.886 -867.909)" fill="#f2f1ec"/>
        <path id="Path_2334" data-name="Path 2334" d="M1558.513,944.622l3.443-.09-.3,1.282-3.12-.2Z" transform="translate(-1514.127 -910.148)" fill="#ab4a55"/>
        <path id="Path_2335" data-name="Path 2335" d="M1554.357,960.086s6.275,15.7,7.594,15.7c1.166,0,3.052-1.661,3.052-1.661s-8.207-10.277-8.207-12.8a.721.721,0,0,1,.052-.292Z" transform="translate(-1517.763 -896.538)" fill="#f6a65c"/>
        <path id="Path_2336" data-name="Path 2336" d="M1563.023,966.849s1.976,7,3.45,7a.468.468,0,0,0,.223-.058,4.941,4.941,0,0,0,2.083-2.362s-3.581-4.393-4.59-6.821Z" transform="translate(-1510.182 -892.582)" fill="#f6a65c"/>
        <path id="Path_2337" data-name="Path 2337" d="M1566,993.937s-2.764,15.851-5.824,21.144l4.026-.506Z" transform="translate(-1512.675 -866.92)" fill="#f6a65c"/>
        <path id="Path_2338" data-name="Path 2338" d="M1565.506,1006.164l-14.58-.562a4.706,4.706,0,0,0,.551-1.734.622.622,0,0,0-.692-.709,3.717,3.717,0,0,0-1.423.407s3.349-21.419,3.763-24.64c0,0-.3,12.1-.3,19.018,0,1.957.024,3.5.086,4.241C1553.19,1005.542,1565.506,1006.164,1565.506,1006.164Z" transform="translate(-1522.133 -880.055)" fill="#f6a65c"/>
        <path id="Path_2339" data-name="Path 2339" d="M1581.3,1010.377a8.027,8.027,0,0,1-4.751-1.356l-.769-29.326,6.709,30.612A9.023,9.023,0,0,1,1581.3,1010.377Z" transform="translate(-1499.019 -879.381)" fill="#f6a65c"/>
        <path id="Path_2340" data-name="Path 2340" d="M1621.28,1003.849l-19.353,28.657s6.011,2.944,6.692,2.944c.368,0,20.4-28.289,20.4-28.289Z" transform="translate(-1476.142 -858.248)" fill="#f2f1ec"/>
        <path id="Path_2341" data-name="Path 2341" d="M1619.5,1008.929c5.107,2.651,10.073,4.562,15.1,4.562,5.355,0,26.973-5.066,27.348-5.066.048,0,1-.137,1,1.584a4.006,4.006,0,0,1-2.685,3.658c-2.91,1.228-7.995,3.321-7.995,4.211,0,.673,6.948,1.918,13.462,4.457,4.337,1.689,11.347,5.666,11.347,6.189,0,.459-1.187,1.228-2.694,1.228-1.213,0-10.8-3.005-10.8-3.005s11.07,6.748,11.07,7.6c0,.643-1.185,1.2-2.587,1.2-2.447,0-9.633-4.1-9.633-4.1s8.038,7.187,8.038,7.867c0,.356-.975.8-1.985.8-3.124,0-4.373-3.748-7.224-4.8-1.431-.529-6.559-1.669-6.559-1.669s5.6,3.109,6.915,4.491c1.236,1.3,4.245,3.062,4.245,3.86a2.035,2.035,0,0,1-1.738,1.369c-1.618,0-8.074-5.224-9.746-5.889-1-.4-10.331.129-14.776-2.019-5.192-2.509-31.467-10.6-31.467-10.6Z" transform="translate(-1470.721 -854.247)" fill="#f6a88a"/>
        <path id="Path_2342" data-name="Path 2342" d="M1569.891,956.452c0-1.211.345-2.8,2.057-3.274-5.447,1.432-8.064,2.445-8.064,2.445s4.6,1.108,6.167,2.293A6.787,6.787,0,0,1,1569.891,956.452Z" transform="translate(-1509.429 -902.583)" fill="#e27c6b"/>
        <path id="Path_2343" data-name="Path 2343" d="M1567.895,944.378c3.054,0,3.255,1.44,3.255,1.562,0,.926-1.613,1.7-3.547,1.7-3.056,0-3.255-1.44-3.255-1.562C1564.347,945.151,1565.958,944.378,1567.895,944.378Z" transform="translate(-1509.023 -910.282)" fill="#e27c6b"/>
        <path id="Path_2344" data-name="Path 2344" d="M1574.414,944.483c2.557,0,2.724,1.2,2.724,1.307,0,.774-1.348,1.421-2.97,1.421-2.557,0-2.724-1.206-2.724-1.307C1571.444,945.13,1572.794,944.483,1574.414,944.483Z" transform="translate(-1502.813 -910.19)" fill="#e27c6b"/>
        <path id="Path_2345" data-name="Path 2345" d="M1567.894,996.367l.32,15.84-2.136.028Z" transform="translate(-1507.509 -864.794)" fill="#e27c6b"/>
        <path id="Path_2346" data-name="Path 2346" d="M1619.913,1008.906s-6.433,10.329-7.262,17.146l-4.528-1.442,11.373-15.918Z" transform="translate(-1470.721 -854.01)" fill="#e27c6b"/>
        <path id="Path_2347" data-name="Path 2347" d="M1536.847,1002.884a9.138,9.138,0,0,0-.709,3.737c0,1.815.407,3.407.9,3.606a1.635,1.635,0,0,0,.555.068,36.862,36.862,0,0,0,5.119-.782l-2.031-.562,1.971-1.712a11.477,11.477,0,0,1-3.855,1.4c-.842,0-.879-.521-.879-.855,0-1.744,1.927-3.55,1.927-3.55l-2.237.651Z" transform="translate(-1533.704 -859.092)" fill="#e35b5b"/>
        <path id="Path_2348" data-name="Path 2348" d="M1546.3,962.363a6.567,6.567,0,0,1,5.357-2.773,3.668,3.668,0,0,1,1.457.262,12.983,12.983,0,0,0-3.414.975l2.034.681A26.05,26.05,0,0,0,1546.3,962.363Z" transform="translate(-1524.814 -896.972)" fill="#e35b5b"/>
        <path id="Path_2349" data-name="Path 2349" d="M1576.732,958.961a1.224,1.224,0,0,1,.148-.536,1.791,1.791,0,0,1,.684-.116,9.117,9.117,0,0,1,3.193.939,12.532,12.532,0,0,1-2.745.4C1577.478,959.653,1576.732,959.6,1576.732,958.961Z" transform="translate(-1498.186 -898.093)" fill="#e35b5b"/>
        <g id="Group_175" data-name="Group 175" transform="translate(34.362 30.185)">
          <path id="Path_2350" data-name="Path 2350" d="M1560.44,950.613a.7.7,0,0,1-.7-.7c0-.06.045-.574.045-1.239,0-3.092-.937-4.97-3.264-4.97a9.605,9.605,0,0,0-2.647.581.7.7,0,0,1-.636-.4.7.7,0,0,1,.336-.936,7.636,7.636,0,0,1,2.944-.65c3.812,0,4.674,3.5,4.674,6.375,0,.411-.015.842-.047,1.292A.7.7,0,0,1,1560.44,950.613Z" transform="translate(-1553.167 -942.292)" fill="#e27c6b"/>
        </g>
        <g id="Group_176" data-name="Group 176" transform="translate(35.44 31.267)">
          <path id="Path_2351" data-name="Path 2351" d="M1554.839,950.241a.7.7,0,0,1-.634-.4,5.634,5.634,0,0,1-.463-2.209c0-4.091,4.852-4.76,4.927-4.76a.7.7,0,0,1,.154,1.387c-3.045.637-3.673,2.136-3.673,3.377a7.369,7.369,0,0,0,.394,1.9A.713.713,0,0,1,1554.839,950.241Z" transform="translate(-1553.742 -942.869)" fill="#e27c6b"/>
        </g>
      </g>
    </g>
    <rect id="Bg" width="55.85" height="98.829" rx="16" transform="translate(757.236 548.375)" fill="#4edbe7"/>
    <g id="Group_69449" data-name="Group 69449" transform="translate(-46.133 -21.995)">
      <path id="Path_10783" data-name="Path 10783" d="M437.234,198.97h8.922v29.683a2.136,2.136,0,0,1-2.136,2.136h-4.65a2.136,2.136,0,0,1-2.136-2.136V198.97Z" transform="translate(222.566 40.435)" fill="#935b50"/>
      <path id="Path_10784" data-name="Path 10784" d="M525.346,198.97h8.922v29.683a2.136,2.136,0,0,1-2.136,2.136h-4.65a2.136,2.136,0,0,1-2.136-2.136V198.97Z" transform="translate(283.493 40.435)" fill="#935b50"/>
      <path id="Path_10785" data-name="Path 10785" d="M626.139,203.364H428.566c-1.1,0-2-1.4-2-3.119s.9-3.119,2-3.119H626.139c1.1,0,2,1.4,2,3.119S627.243,203.364,626.139,203.364Z" transform="translate(215.189 39.16)" fill="#d6694b"/>
      <rect id="Rectangle_2156" data-name="Rectangle 2156" width="10.083" height="1.219" transform="translate(681.669 231.311)" fill="#fff"/>
      <rect id="Rectangle_2157" data-name="Rectangle 2157" width="10.083" height="1.219" transform="translate(681.669 226.439)" fill="#fff"/>
      <rect id="Rectangle_2158" data-name="Rectangle 2158" width="10.083" height="1.219" transform="translate(681.669 182.601)" fill="#fff"/>
      <rect id="Rectangle_2159" data-name="Rectangle 2159" width="10.083" height="1.219" transform="translate(681.669 177.73)" fill="#fff"/>
      <path id="Path_10786" data-name="Path 10786" d="M1.031,0H64.1V9.917H1.031A1.031,1.031,0,0,1,0,8.886V1.031A1.031,1.031,0,0,1,1.031,0Z" transform="translate(748.986 172.773) rotate(97.76)" fill="#7ca1b1"/>
      <rect id="Rectangle_2160" data-name="Rectangle 2160" width="1.197" height="9.917" transform="translate(738.416 176.866) rotate(-82.246)" fill="#fff"/>
      <rect id="Rectangle_2161" data-name="Rectangle 2161" width="1.197" height="9.917" transform="matrix(0.135, -0.991, 0.991, 0.135, 737.772, 181.619)" fill="#fff"/>
      <rect id="Rectangle_2162" data-name="Rectangle 2162" width="1.197" height="9.917" transform="matrix(0.135, -0.991, 0.991, 0.135, 731.951, 224.34)" fill="#fff"/>
      <rect id="Rectangle_2163" data-name="Rectangle 2163" width="1.197" height="9.917" transform="translate(731.3 229.081) rotate(-82.246)" fill="#fff"/>
      <path id="Path_10787" data-name="Path 10787" d="M475.2,160.261V223.33H465.28V160.261a1.031,1.031,0,0,1,1.031-1.031h7.855a1.031,1.031,0,0,1,1.031,1.031Z" transform="translate(241.959 12.957)" fill="#f65b2b"/>
      <rect id="Rectangle_2164" data-name="Rectangle 2164" width="9.917" height="1.199" transform="translate(707.239 230.799)" fill="#fff"/>
      <rect id="Rectangle_2165" data-name="Rectangle 2165" width="9.917" height="1.199" transform="translate(707.239 226.009)" fill="#fff"/>
      <rect id="Rectangle_2166" data-name="Rectangle 2166" width="9.917" height="1.199" transform="translate(707.239 182.894)" fill="#fff"/>
      <rect id="Rectangle_2167" data-name="Rectangle 2167" width="9.917" height="1.199" transform="translate(707.239 178.104)" fill="#fff"/>
      <path id="Path_10788" data-name="Path 10788" d="M471.135,222.155V161.96a1.031,1.031,0,0,1,1.031-1.031h11.305a1.031,1.031,0,0,1,1.031,1.031v60.194Z" transform="translate(246.008 14.131)" fill="#ffba55"/>
      <rect id="Rectangle_2168" data-name="Rectangle 2168" width="13.367" height="1.199" transform="translate(717.143 228.753)" fill="#fff"/>
      <rect id="Rectangle_2169" data-name="Rectangle 2169" width="28.6" height="8.623" transform="translate(728.138 178.51) rotate(90)" fill="#fff"/>
      <path id="Path_10789" data-name="Path 10789" d="M451.526,160.261V223.33h9.917V160.261a1.031,1.031,0,0,0-1.031-1.031h-7.855a1.031,1.031,0,0,0-1.031,1.031Z" transform="translate(232.448 12.957)" fill="#ffba55"/>
      <rect id="Rectangle_2170" data-name="Rectangle 2170" width="9.917" height="1.199" transform="translate(683.974 230.799)" fill="#fff"/>
      <rect id="Rectangle_2171" data-name="Rectangle 2171" width="9.917" height="1.199" transform="translate(683.974 226.009)" fill="#fff"/>
      <rect id="Rectangle_2172" data-name="Rectangle 2172" width="9.917" height="1.199" transform="translate(683.974 182.894)" fill="#fff"/>
      <rect id="Rectangle_2173" data-name="Rectangle 2173" width="9.917" height="1.199" transform="translate(683.974 178.104)" fill="#fff"/>
      <path id="Path_10790" data-name="Path 10790" d="M457,222.155V161.96a1.031,1.031,0,0,0-1.031-1.031h-11.3a1.031,1.031,0,0,0-1.031,1.031v60.194Z" transform="translate(226.989 14.131)" fill="#f65b2b"/>
      <rect id="Rectangle_2174" data-name="Rectangle 2174" width="13.367" height="1.199" transform="translate(670.62 228.753)" fill="#fff"/>
      <rect id="Rectangle_2175" data-name="Rectangle 2175" width="28.6" height="8.623" transform="translate(681.615 178.511) rotate(90)" fill="#fff"/>
      <path id="Path_10791" data-name="Path 10791" d="M1.031,0H61.225V13.366H1.031A1.031,1.031,0,0,1,0,12.335V1.031A1.031,1.031,0,0,1,1.031,0Z" transform="translate(707.247 175.062) rotate(90)" fill="#7ca1b1"/>
      <rect id="Rectangle_2176" data-name="Rectangle 2176" width="13.366" height="1.199" transform="translate(693.881 228.753)" fill="#fff"/>
      <rect id="Rectangle_2177" data-name="Rectangle 2177" width="28.6" height="8.623" transform="translate(704.877 178.511) rotate(90)" fill="#fff"/>
      <rect id="Rectangle_2178" data-name="Rectangle 2178" width="80.333" height="2.393" transform="translate(767.282 217.086) rotate(-66.921)" fill="#935b50"/>
      <circle id="Ellipse_10376" data-name="Ellipse 10376" cx="32.356" cy="32.356" r="32.356" transform="translate(748.324 148.018)" fill="#417db1"/>
      <path id="Path_10792" data-name="Path 10792" d="M495.311,155.376a32.332,32.332,0,0,0-5,25.294c.02.012.04.026.06.038a3.764,3.764,0,0,0,3.723,0,9.725,9.725,0,0,0,1.155-2.567c.466-1.218.563-1.615,1.027-1.926.59-.4,1.085-.191,1.412-.642.293-.4.012-.733.128-1.412a3.879,3.879,0,0,1,1.669-2.182c1.1-.888,1.671-.795,1.869-1.4.124-.38-.015-.677-.585-1.938a19.792,19.792,0,0,1-1.155-2.7,5.659,5.659,0,0,1,.642-3.209,49.989,49.989,0,0,0,1.155-5.263c1.3-4.932,3.556-6.831,3.081-7.317C503.911,149.556,499.431,151.361,495.311,155.376Z" transform="translate(258.755 6.604)" fill="#a6b862"/>
      <path id="Path_10793" data-name="Path 10793" d="M540.97,155.531c-2.236-2.3-4.369-3.577-4.967-3.194-.26.167-.09.559-.513,1.54-.405.939-1.393,2.507-2.567,2.567-.526.027-.769-.265-2.439-1.669-2.486-2.09-2.914-2.255-3.338-2.182-1.085.186-1.948,1.891-1.54,2.568s1.842.036,2.311.77a1.871,1.871,0,0,1-.77,2.182,2.989,2.989,0,0,1-2.7-.128,5.115,5.115,0,0,1-2.7-2.054c-.686-1.132-.478-2.02-1.027-2.182-.5-.147-1.2.425-1.54,1.027-.586,1.04.127,1.8-.385,2.567-.659.993-2.317.454-2.567,1.155-.233.65.972,1.727,1.925,2.311,1.181.722,1.583.445,3.081,1.027,2.241.871,2.091,1.783,4.108,2.439,1.752.57,2.336.035,3.081.77.612.6.707,1.558.9,3.466.152,1.516-.023,1.878-.128,2.054a2.439,2.439,0,0,1-2.567,1.027c-.512-.136-.855-.476-1.54-1.155-.786-.779-.787-1.077-1.284-1.284-.765-.318-1.127.235-1.8,0-.892-.312-1.248-1.639-1.669-3.209s-.333-2.248-.9-2.567c-.462-.261-.749.056-1.8,0a8.065,8.065,0,0,1-2.311-.642,20.2,20.2,0,0,0-2.824-.77,8.447,8.447,0,0,0-4.108.513,9.089,9.089,0,0,0-4.365,2.567,6.521,6.521,0,0,0-1.926,4.878,5.944,5.944,0,0,0,1.926,3.723c1.486,1.3,2.482.695,3.851,1.926a6.176,6.176,0,0,1,1.8,4.108c.036.667-.025,1.591-2.054,5.777-1.578,3.256-1.991,3.626-2.182,5.006-.214,1.544-.135,4.247,1.284,5.006.785.42,1.169-.191,4.236-.513a18.449,18.449,0,0,1,3.466-.128c1.74.119,1.951.424,2.953.257a6.244,6.244,0,0,0,2.953-1.54c1.272-1.038,1.15-1.506,2.439-2.567a12.368,12.368,0,0,1,2.567-1.54c1.876-.95,2.377-.906,3.98-1.8,1.4-.777,2.478-1.394,2.439-2.182a1.732,1.732,0,0,0-1.155-1.284c-.963-.374-1.491.349-2.311,0a2.326,2.326,0,0,1-1.155-2.311c.072-.731.52-1.664,1.027-1.669.642-.006.608,1.484,1.8,2.182a3.418,3.418,0,0,0,3.338-.257c.874-.539,1.893-1.692,1.669-2.7-.171-.766-.933-.846-1.155-1.8-.147-.627-.027-1.493.385-1.669.775-.33,2.4,1.859,3.209,2.953a8.916,8.916,0,0,1,2.182,3.979c.221,1.561-.337,2.6.385,3.338a1.974,1.974,0,0,0,1.54.513,2.082,2.082,0,0,0,.768-.239,32.374,32.374,0,0,0-1.322-30.971Z" transform="translate(267.426 8.144)" fill="#a6b862"/>
      <path id="Path_10794" data-name="Path 10794" d="M516.86,222.232a42.355,42.355,0,0,1-16.367-3.309,2.2,2.2,0,0,1,1.695-4.05,38.026,38.026,0,0,0,29.351-70.16,2.195,2.195,0,0,1,1.693-4.05,42.439,42.439,0,0,1-16.371,81.569Z" transform="translate(265.376)" fill="#935b50"/>
      <path id="Path_10795" data-name="Path 10795" d="M550.649,198.967h-25.5v-9.841a2.793,2.793,0,0,0-2.793-2.793c-1.543,0-6.783,1.25-6.783,2.793v9.841H494.054a2.793,2.793,0,1,0,0,5.586h56.6a2.793,2.793,0,1,0,0-5.586Z" transform="translate(259.924 31.697)" fill="#935b50"/>
      <path id="Path_10796" data-name="Path 10796" d="M425.867,513.694l43.011-145L456.9,365.14,412.712,514.088Z" transform="translate(205.609 155.339)" fill="#c38f86"/>
      <path id="Path_10797" data-name="Path 10797" d="M490.591,513.694l13.155.394L459.564,365.14l-11.984,3.554Z" transform="translate(229.72 155.339)" fill="#c38f86"/>
      <rect id="Rectangle_2180" data-name="Rectangle 2180" width="12.499" height="157.622" transform="translate(669.732 511.833)" fill="#c38f86"/>
      <rect id="Rectangle_2181" data-name="Rectangle 2181" width="138.131" height="20.844" rx="6.162" transform="translate(750.017 525.38) rotate(180)" fill="#935b50"/>
      <path id="Path_10798" data-name="Path 10798" d="M414.983,320.3s-.848,6.589-11.959,16.142-20.874,15.886-14.785,7.542l4.745-6.282s-11.322,3.257-17.9,5.788a8.724,8.724,0,0,1-10.048-2.608c-2.142-2.772-1.818-5.563,5.172-9.936,10.455-6.541,16.164-9.7,19.218-10.559,1.058-.3,12.762-2.594,12.762-2.594Z" transform="translate(171.84 122.598)" fill="#f9977a"/>
      <path id="Path_10799" data-name="Path 10799" d="M387.762,328.077a9.034,9.034,0,0,1-1.519,1,13.138,13.138,0,0,1-1.628.755,12.417,12.417,0,0,1-1.719.525,7.807,7.807,0,0,1-1.81.231,13.372,13.372,0,0,1,1.58-.882c.53-.273,1.079-.492,1.628-.712a15.012,15.012,0,0,1,3.469-.919Z" transform="translate(183.74 129.71)" fill="#dd765e"/>
      <path id="Path_10800" data-name="Path 10800" d="M382.418,328.47c-2.621,1.34-5.283,2.519-7.915,3.762-2.643,1.227-5.256,2.457-7.808,3.915a20.227,20.227,0,0,1,3.534-2.651,37.316,37.316,0,0,1,3.895-2.078c1.336-.613,2.689-1.186,4.076-1.671A37.234,37.234,0,0,1,382.418,328.47Z" transform="translate(173.789 129.982)" fill="#dd765e"/>
      <path id="Path_10801" data-name="Path 10801" d="M381.479,326.333c-2.967,1.25-5.935,2.41-8.825,3.735-1.455.639-2.868,1.358-4.252,2.121a16.505,16.505,0,0,0-3.839,2.787,11.392,11.392,0,0,1,3.473-3.372,27.219,27.219,0,0,1,4.247-2.352,40.676,40.676,0,0,1,4.517-1.728A35.8,35.8,0,0,1,381.479,326.333Z" transform="translate(172.316 128.505)" fill="#dd765e"/>
      <path id="Path_10802" data-name="Path 10802" d="M378.693,324.665l-7.351,3.168c-1.218.529-2.407,1.111-3.61,1.675-1.194.584-2.357,1.22-3.549,1.857a24,24,0,0,1,6.794-4.352,34.561,34.561,0,0,1,3.785-1.417A26.088,26.088,0,0,1,378.693,324.665Z" transform="translate(172.053 127.351)" fill="#dd765e"/>
      <path id="Path_10803" data-name="Path 10803" d="M423.907,432.126l.932,29.412s-16.486,4.042-24.257-15.077l1.363-17.175Z" transform="translate(197.222 199.693)" fill="#f9977a"/>
      <path id="Path_10804" data-name="Path 10804" d="M441.112,436.889s13.111,16.376,5.844,26.029a4.039,4.039,0,0,1-3.251,1.587l-65-.353a2.119,2.119,0,0,1-2.087-2.368c.373-3.367,23.757-9.065,38.832-22.03C415.452,439.753,434.994,445.368,441.112,436.889Z" transform="translate(180.643 204.952)" fill="#353432"/>
      <path id="Path_10805" data-name="Path 10805" d="M470.327,432.126l.932,29.412S454.773,465.579,447,446.461l1.363-17.175Z" transform="translate(229.32 199.693)" fill="#f9977a"/>
      <path id="Path_10806" data-name="Path 10806" d="M487.532,436.889s13.11,16.376,5.844,26.029a4.038,4.038,0,0,1-3.251,1.587l-65-.353a2.119,2.119,0,0,1-2.087-2.368c.373-3.367,23.757-9.065,38.832-22.03C461.872,439.753,481.414,445.368,487.532,436.889Z" transform="translate(212.741 204.952)" fill="#353432"/>
      <path id="Path_10807" data-name="Path 10807" d="M471.536,262.922l-22.711,11.149s-16.93,24.776-15.691,35.1l-13.214,25.6-35.512,27.253,11.562,16.517,42.247-23.076a26.047,26.047,0,0,0,10.554-10.711l8.313-15.765s7.02,13.627,16.517,30.97l-2.065,24.776h99.516l-5.781-64.83s.413-42.119-18.995-53.681c0,0-11.562-7.433-33.86-7.02A23.62,23.62,0,0,0,506.842,251Z" transform="translate(186.038 76.412)" fill="#498851"/>
      <path id="Path_10808" data-name="Path 10808" d="M562.133,330s13.191,49.633-52.764,51.16l3.3,126.5H473.753l-4.617-130.317-32.218,1.735-2.739,128.582H397.608l2.276-140.244c0-20.664,14.469-37.415,32.318-37.415Z" transform="translate(195.165 131.038)" fill="#f6c15c"/>
      <path id="Path_10809" data-name="Path 10809" d="M468.518,348.656A32.923,32.923,0,0,1,468.212,359a22.581,22.581,0,0,1-1.5,5.015,10.671,10.671,0,0,1-3.034,4.235,16.154,16.154,0,0,0,2.141-4.574,38.39,38.39,0,0,0,1.187-4.9C467.652,355.456,468.024,352.078,468.518,348.656Z" transform="translate(240.854 143.941)" fill="#e6952a"/>
      <path id="Path_10810" data-name="Path 10810" d="M458.144,330.073a7.612,7.612,0,0,0-6.2,2.043,17.185,17.185,0,0,0-4.042,5.318,48.631,48.631,0,0,0-4.357,12.826l-.754,3.329-.549,3.376-.544,3.379c-.115,1.136-.252,2.27-.4,3.4-.645,4.53-.881,9.1-1.407,13.667.018-4.585.019-9.186.47-13.764.082-1.147.172-2.294.284-3.438l.493-3.418.5-3.419.712-3.388a46.137,46.137,0,0,1,4.733-13.016,17.741,17.741,0,0,1,4.49-5.327,7.655,7.655,0,0,1,6.565-1.573Z" transform="translate(224.407 130.961)" fill="#e6952a"/>
      <path id="Path_10811" data-name="Path 10811" d="M423.854,363.57c-.993-2.129-1.868-4.211-2.989-6.146a14.018,14.018,0,0,0-4.366-5.006,6.63,6.63,0,0,1,3.188,1.589,11.066,11.066,0,0,1,2.241,2.81A14.659,14.659,0,0,1,423.854,363.57Z" transform="translate(208.229 146.542)" fill="#e6952a"/>
      <path id="Path_10812" data-name="Path 10812" d="M457.391,318.123l-21.42-3.842a8.133,8.133,0,0,0-6.673,1.467l-14.192,10.786c3.111,7.374,41.81,7.285,41.81,7.285S461.667,318.365,457.391,318.123Z" transform="translate(207.265 120.038)" fill="#f9977a"/>
      <path id="Path_10813" data-name="Path 10813" d="M418.275,327.8a77.616,77.616,0,0,1,6.123-5.374c2.123-1.684,4.29-3.309,6.525-4.846l.125-.086.109-.007q2.733-.186,5.493-.136-2.681.653-5.389,1.073l.233-.093c-2.077,1.744-4.22,3.4-6.409,5A77.659,77.659,0,0,1,418.275,327.8Z" transform="translate(209.456 122.283)" fill="#dd765e"/>
      <path id="Path_10814" data-name="Path 10814" d="M423.036,327.945a40.7,40.7,0,0,1,4.005-3.972c1.414-1.227,2.862-2.412,4.381-3.51l.119-.086.088-.016a38.435,38.435,0,0,1,4.61-.55,38.421,38.421,0,0,1-4.377,1.547l.207-.1c-1.385,1.263-2.839,2.44-4.329,3.574A40.73,40.73,0,0,1,423.036,327.945Z" transform="translate(212.748 123.995)" fill="#dd765e"/>
      <path id="Path_10815" data-name="Path 10815" d="M428.719,327.259a15.823,15.823,0,0,1,3.161-4.392l.147-.154.165-.026a13.3,13.3,0,0,1,3.458-.127,13.293,13.293,0,0,1-3.224,1.255l.312-.18A15.824,15.824,0,0,1,428.719,327.259Z" transform="translate(216.678 125.854)" fill="#dd765e"/>
      <path id="Path_10816" data-name="Path 10816" d="M420.85,284.042c1.156,1.788,2.2,3.631,3.229,5.483s1.969,3.747,2.958,5.618c.906,1.913,1.857,3.8,2.722,5.736s1.713,3.875,2.447,5.873c-1.158-1.787-2.2-3.63-3.23-5.482s-1.97-3.747-2.956-5.619c-.9-1.914-1.858-3.8-2.72-5.737S421.586,286.04,420.85,284.042Z" transform="translate(211.237 99.261)" fill="#10394f"/>
      <path id="Path_10817" data-name="Path 10817" d="M409.5,299.544a25.525,25.525,0,0,1,8.822,2.6,18.412,18.412,0,0,1,3.887,2.567,10.137,10.137,0,0,1,2.776,3.708,16.528,16.528,0,0,0-3.325-3.01,30.159,30.159,0,0,0-3.851-2.25c-1.324-.691-2.7-1.286-4.09-1.881Z" transform="translate(203.387 109.98)" fill="#10394f"/>
      <path id="Path_10818" data-name="Path 10818" d="M468.7,288.666a57.305,57.305,0,0,1,3.036-8.122,62.334,62.334,0,0,1,4.165-7.637,36.586,36.586,0,0,1,5.542-6.746,16.655,16.655,0,0,1,7.491-4.336,19.972,19.972,0,0,0-6.877,4.959,41.144,41.144,0,0,0-5.2,6.744,79.678,79.678,0,0,0-4.334,7.4C471.176,283.465,469.914,286.048,468.7,288.666Z" transform="translate(244.322 83.899)" fill="#10394f"/>
      <path id="Path_10819" data-name="Path 10819" d="M487.359,282.089a139.548,139.548,0,0,0,.585,19.574,70.762,70.762,0,0,0,1.6,9.636,29.94,29.94,0,0,0,3.466,9.013l.052.081v.1l.054,10.323,0,.349-.35.035-53.046,5.317.209-1.013a8.85,8.85,0,0,1,3.37,5.57,19.922,19.922,0,0,1,.259,6.363,36.617,36.617,0,0,1-1.284,6.171c-.583,2.016-1.335,3.966-2.1,5.912l-.511-.764,54.274.141,13.569.072,6.784.036a23.556,23.556,0,0,0,6.664-.453,12.553,12.553,0,0,0,5.653-3.38,13.034,13.034,0,0,0,3.188-5.812,56.7,56.7,0,0,0,1.944-13.381,56.817,56.817,0,0,1-1.7,13.446,13.355,13.355,0,0,1-3.156,6.01,13,13,0,0,1-5.789,3.608,23.02,23.02,0,0,1-6.806.57l-6.784.036-13.569.072-54.274.141-.807,0,.3-.766c.741-1.916,1.473-3.835,2.035-5.8a38.062,38.062,0,0,0,1.247-5.978,18.834,18.834,0,0,0-.216-6,7.949,7.949,0,0,0-2.817-4.867l-1.276-.873,1.486-.14,53.076-5.006-.348.384.054-10.323.052.178A30.162,30.162,0,0,1,489,311.424a71.224,71.224,0,0,1-1.425-9.726,139.723,139.723,0,0,1-.221-19.609Z" transform="translate(223.184 97.911)" fill="#10394f"/>
      <path id="Path_10820" data-name="Path 10820" d="M458.55,335.2a34.556,34.556,0,0,0-.058-6.129,28.77,28.77,0,0,0-1.218-5.919,23.447,23.447,0,0,0-2.472-5.49,32.091,32.091,0,0,0-3.677-4.892,18.868,18.868,0,0,1,4.419,4.4,20.8,20.8,0,0,1,1.652,2.694,24.724,24.724,0,0,1,1.163,2.942,21.238,21.238,0,0,1,.192,12.39Z" transform="translate(232.171 119.127)" fill="#10394f"/>
      <path id="Path_10821" data-name="Path 10821" d="M493.811,328.457a56.44,56.44,0,0,0-4.854-5.171,44.474,44.474,0,0,0-5.456-4.466,46.566,46.566,0,0,0-6.029-3.612,35.363,35.363,0,0,0-6.5-2.516l-1.571-.425,1.457-.628a33.2,33.2,0,0,1,6.281-1.948,26.057,26.057,0,0,1,6.536-.587,19.351,19.351,0,0,1,6.4,1.412,15.309,15.309,0,0,1,5.175,3.9,16.207,16.207,0,0,0-5.375-3.406,19.231,19.231,0,0,0-6.222-1.062,30.557,30.557,0,0,0-6.3.739,32.267,32.267,0,0,0-6.023,1.965l-.113-1.053a32.393,32.393,0,0,1,6.723,2.672,40.661,40.661,0,0,1,6.086,3.819,43.119,43.119,0,0,1,9.779,10.365Z" transform="translate(244.812 116.579)" fill="#10394f"/>
      <path id="Path_10822" data-name="Path 10822" d="M416.333,286.971a43.445,43.445,0,0,1,6.912,2.807,42.927,42.927,0,0,1,6.4,3.825,42.927,42.927,0,0,1-6.912-2.807,43.443,43.443,0,0,1-6.4-3.825Z" transform="translate(208.113 101.287)" fill="#10394f"/>
      <path id="Path_10823" data-name="Path 10823" d="M437.511,258.409a8.2,8.2,0,0,0-1.949,4.41,28.858,28.858,0,0,0-.466,4.882c-.032,1.64-.024,3.283.082,4.925.083,1.644.281,3.28.4,4.924l-.945-.317a12.978,12.978,0,0,1,3.506-2.4,9.15,9.15,0,0,1,4.132-.911,8.269,8.269,0,0,1,4.043,1.08,11.214,11.214,0,0,1,1.71,1.169c.526.44.982.96,1.46,1.439-.553-.4-1.071-.839-1.625-1.217a10.8,10.8,0,0,0-1.767-.935,8.046,8.046,0,0,0-3.807-.723,9.874,9.874,0,0,0-3.714,1.006,12.015,12.015,0,0,0-3.14,2.246l-.813.822-.132-1.139a58.356,58.356,0,0,1-.324-10.017,29.587,29.587,0,0,1,.823-4.972,13.013,13.013,0,0,1,.93-2.353A4.668,4.668,0,0,1,437.511,258.409Z" transform="translate(220.385 81.537)" fill="#10394f"/>
      <path id="Path_10824" data-name="Path 10824" d="M470.826,256.211a43.306,43.306,0,0,1-.629,7.35,52.52,52.52,0,0,1-1.739,7.208,48.671,48.671,0,0,1-2.794,6.884,40.594,40.594,0,0,1-3.918,6.329l-.4.562-.44-.568a14.121,14.121,0,0,0-3.182-2.926,15.757,15.757,0,0,0-3.892-2.033,18.037,18.037,0,0,0-4.326-.952,23.243,23.243,0,0,0-4.489.032,19.527,19.527,0,0,1,4.514-.466,15.785,15.785,0,0,1,4.529.7,16.46,16.46,0,0,1,4.2,1.924,14.987,14.987,0,0,1,3.489,3.115l-.838-.006a50.681,50.681,0,0,0,6.617-12.9,64.82,64.82,0,0,0,3.3-14.246Z" transform="translate(227.948 80.017)" fill="#10394f"/>
      <path id="Path_10825" data-name="Path 10825" d="M443.925,269.76c.414,6.132.748,12.265,1.1,18.4l1.048,18.389q.477,9.195,1.185,18.372c.213,3.06.475,6.118.82,9.163.157,1.525.305,3.053.56,4.563a40.4,40.4,0,0,0,.891,4.511,95.633,95.633,0,0,1-3.143-18.158c-.649-6.117-1.04-12.252-1.448-18.384-.317-6.138-.612-12.275-.784-18.418S443.87,275.907,443.925,269.76Z" transform="translate(227.183 89.386)" fill="#10394f"/>
      <path id="Path_10826" data-name="Path 10826" d="M466.407,217.27a30.513,30.513,0,0,0-14.3.274c-2.2.618-10.226,2.878-14.544,10.052-1.64,2.725-2.194,6.1-3.3,12.84-.692,4.212-2.527,7.14-2.868,12.311a43.783,43.783,0,0,0,1.221,12.474c1.486,6.377.025,9.847.9,11.079,3.508,4.963,15.355,2.039,15.12,8.2-.145,3.8-13.139,15.418-8.814,16.494,10,2.487,21.731.015,27.4-2.5.773-.342,9.575-2.313,9.281-9.074-.157-3.611-1.175-26.524-.739-28.675,1.578-7.775,5.6-8.469,9.342-17.744a14.783,14.783,0,0,0-1.493-14.383,30.2,30.2,0,0,0-17.2-11.346Z" transform="translate(218.493 52.592)" fill="#f9977a"/>
      <path id="Path_10829" data-name="Path 10829" d="M441.406,233.166a7.905,7.905,0,0,1-.733,4.978,18.279,18.279,0,0,1-2.745,4.291c-.567.651-1.361,1.113-1.354,1.79a2.875,2.875,0,0,0,.942,1.987,6.2,6.2,0,0,0,4.563,1.335,5.778,5.778,0,0,1-4.916-.958,3.2,3.2,0,0,1-1.2-2.4,1.956,1.956,0,0,1,.6-1.308l.868-.9a20.054,20.054,0,0,0,2.781-4.073,9.007,9.007,0,0,0,1.188-4.74Z" transform="translate(221.687 64.082)" fill="#dd765e"/>
      <path id="Path_10830" data-name="Path 10830" d="M454.586,234.588a4.191,4.191,0,0,1,3.18,1.559,7.388,7.388,0,0,1,.988,1.515,6.465,6.465,0,0,1,.53,1.706,23.987,23.987,0,0,0-2.019-2.775,7.369,7.369,0,0,0-1.2-1.149,6.066,6.066,0,0,0-1.476-.855Z" transform="translate(234.564 65.065)" fill="#dd765e"/>
      <path id="Path_10831" data-name="Path 10831" d="M455.241,242.419a5.977,5.977,0,0,1,1.679-7.086c-.293.579-.612,1.108-.834,1.682a8.255,8.255,0,0,0-.56,1.728A12.241,12.241,0,0,0,455.241,242.419Z" transform="translate(234.654 65.58)" fill="#dd765e"/>
      <path id="Path_10832" data-name="Path 10832" d="M465.68,260.749a15.547,15.547,0,0,1,1.475-6.527c1.329-2.823,2.987-6.679,5.839-6.754,2.1-.055,2.978-.551,3.6,1.515,1.021,3.418-1.383,6.953-3.056,9.416-2.4,3.524-4.277,4.2-4.479,6.737-.154,1.934,5.109,6.228,6.207,5.542,2.237-1.4,1.375-6.094,7.93-16.694,4.139-6.694,5.917-7.883,6.631-12.186.253-1.528,1.3-7.853-2.284-11.811-1.663-1.836-2.709-1.38-10.22-5.166a63.882,63.882,0,0,1-6.092-3.315c-5.933-3.772-5.68-5.493-9.215-6.756-3.193-1.141-3.478.235-9.668-.546-5.968-.753-6.41-2.122-9.232-1.516-4.9,1.052-7.551,6.034-8.263,7.373a16.587,16.587,0,0,0-2.37,7.611,14.964,14.964,0,0,0,2.422,7.721c.728.848,4.2-3.528,6.042-5.139,1.8-1.578,3.682-.758,6.291-.421,2.544.329,2.3,1.91,5.984,3.558,1.313.587,6.869-1.471,8.412,1.63,1.644,3.3,3.061,3.786,1.993,6.688-.667,1.813-.481,4.108-.11,8.7.266,3.293-3.13,14.509-3.13,14.509C459.274,266.848,465.646,265.784,465.68,260.749Z" transform="translate(219.277 49.817)" fill="#1e1d22"/>
      <path id="Path_10833" data-name="Path 10833" d="M446.118,246.259a7.288,7.288,0,0,1-2.689,2.181,7.643,7.643,0,0,1-3.491.8,8.143,8.143,0,0,1-1.823-.286,6.7,6.7,0,0,1-1.635-.822,6.362,6.362,0,0,1-2.245-2.665,18.015,18.015,0,0,0,2.843,1.564,7.349,7.349,0,0,0,2.9.6,16.653,16.653,0,0,0,6.143-1.378Z" transform="translate(220.492 72.589)" fill="#dd765e"/>
      <path id="Path_10834" data-name="Path 10834" d="M442.24,241.863c-3.382-.343-3.9-2.079-10.265,5.252,0,0,6.711-1.617,19.544,2.4C451.518,249.517,447.083,242.354,442.24,241.863Z" transform="translate(218.93 69.803)" fill="#1e1d22"/>
      <path id="Path_10835" data-name="Path 10835" d="M470.732,256.211s-.413,15.278-9.5,27.46a16.727,16.727,0,0,0-16.311-5.575s22.965-19.058,21.939-21.885Z" transform="translate(227.883 80.017)" fill="#2c6734"/>
      <path id="Path_10836" data-name="Path 10836" d="M449.19,279.129c-7.433-7.433-14.453,0-14.453,0-1.858-16.93,2.478-19.2,2.478-19.2l9.323-3.716Z" transform="translate(220.52 80.017)" fill="#2c6734"/>
      <path id="Path_10837" data-name="Path 10837" d="M437.417,258.409a8.2,8.2,0,0,0-1.949,4.41A28.851,28.851,0,0,0,435,267.7c-.032,1.64-.024,3.283.082,4.925.083,1.644.281,3.28.4,4.924l-.945-.317a12.977,12.977,0,0,1,3.506-2.4,9.15,9.15,0,0,1,4.132-.911,8.269,8.269,0,0,1,4.043,1.08,11.226,11.226,0,0,1,1.71,1.169c.526.44.982.96,1.46,1.439-.553-.4-1.071-.839-1.624-1.217a10.8,10.8,0,0,0-1.767-.935,8.045,8.045,0,0,0-3.807-.723,9.874,9.874,0,0,0-3.714,1.006,12.012,12.012,0,0,0-3.14,2.245l-.813.822-.132-1.139a58.353,58.353,0,0,1-.324-10.017,29.6,29.6,0,0,1,.823-4.972,13.031,13.031,0,0,1,.93-2.353A4.67,4.67,0,0,1,437.417,258.409Z" transform="translate(220.32 81.537)" fill="#10394f"/>
      <path id="Path_10838" data-name="Path 10838" d="M470.732,256.211a43.3,43.3,0,0,1-.629,7.35,52.538,52.538,0,0,1-1.739,7.208,48.672,48.672,0,0,1-2.794,6.884,40.578,40.578,0,0,1-3.918,6.329l-.4.562-.44-.568a14.119,14.119,0,0,0-3.182-2.926,15.759,15.759,0,0,0-3.892-2.033,18.038,18.038,0,0,0-4.326-.952,23.247,23.247,0,0,0-4.489.031,19.523,19.523,0,0,1,4.514-.466,15.784,15.784,0,0,1,4.529.7,16.459,16.459,0,0,1,4.2,1.924,14.985,14.985,0,0,1,3.489,3.115l-.838-.006a50.678,50.678,0,0,0,6.617-12.9A64.815,64.815,0,0,0,470.732,256.211Z" transform="translate(227.883 80.017)" fill="#10394f"/>
      <rect id="Rectangle_2182" data-name="Rectangle 2182" width="13.018" height="206.499" transform="translate(505.948 669.56) rotate(180)" fill="#0c1723"/>
      <rect id="Rectangle_2183" data-name="Rectangle 2183" width="391.213" height="9.984" rx="1.327" transform="translate(859.22 463.062) rotate(180)" fill="#0c1723"/>
      <rect id="Rectangle_2184" data-name="Rectangle 2184" width="13.018" height="206.499" transform="translate(833.257 669.56) rotate(180)" fill="#0c1723"/>
      <path id="Path_10839" data-name="Path 10839" d="M4.489,0H356.46a4.489,4.489,0,0,1,4.489,4.489V32.657H0V4.489A4.489,4.489,0,0,1,4.49,0Z" transform="translate(843.642 495.719) rotate(180)" fill="#343536"/>
      <path id="Path_10840" data-name="Path 10840" d="M370,317.934h73.128v11.61H370a5,5,0,0,1-5-5V322.93a5,5,0,0,1,5-5Z" transform="translate(172.621 122.697)" fill="#fff"/>
      <path id="Path_10841" data-name="Path 10841" d="M446.15,330.345A1.052,1.052,0,0,1,445.1,331.4H369.2c-2.9,0-5.255-3.183-5.255-7.1s2.357-7.095,5.255-7.095h75.9a1.052,1.052,0,0,1,1.052,1.052v.828a1.052,1.052,0,0,1-1.052,1.052H369.2c-1.7,0-3.084,1.868-3.084,4.163s1.383,4.164,3.084,4.164h75.9a1.052,1.052,0,0,1,1.052,1.052Z" transform="translate(171.888 122.193)" fill="#f65b2b"/>
      <path id="Path_10842" data-name="Path 10842" d="M363.255,309.545h73.128v11.61H363.255a5,5,0,0,1-5-5v-1.619a5,5,0,0,1,5-5Z" transform="translate(167.957 116.896)" fill="#fff"/>
      <path id="Path_10843" data-name="Path 10843" d="M439.405,321.955a1.052,1.052,0,0,1-1.052,1.052h-75.9c-2.9,0-5.255-3.183-5.255-7.1s2.357-7.095,5.255-7.095h75.9a1.052,1.052,0,0,1,1.052,1.052v.828a1.052,1.052,0,0,1-1.052,1.052h-75.9c-1.7,0-3.084,1.868-3.084,4.163s1.383,4.164,3.084,4.164h75.9a1.052,1.052,0,0,1,1.052,1.052Z" transform="translate(167.223 116.392)" fill="#ffba55"/>
      <path id="Path_10844" data-name="Path 10844" d="M377.062,301.155h73.128v11.61H377.062a5,5,0,0,1-5-5v-1.619a5,5,0,0,1,5-5Z" transform="translate(177.504 111.094)" fill="#fff"/>
      <path id="Path_10845" data-name="Path 10845" d="M453.212,313.566a1.052,1.052,0,0,1-1.052,1.052h-75.9c-2.9,0-5.255-3.183-5.255-7.1s2.357-7.095,5.255-7.095h75.9a1.052,1.052,0,0,1,1.052,1.052v.828a1.052,1.052,0,0,1-1.052,1.052h-75.9c-1.7,0-3.084,1.868-3.084,4.163s1.383,4.164,3.084,4.164h75.9a1.052,1.052,0,0,1,1.052,1.052Z" transform="translate(176.771 110.591)" fill="#f65b2b"/>
      <path id="Path_10847" data-name="Path 10847" d="M8.118,4.606c0,.053.07,1.293-1.776,1.293C3.639,5.9,0,3.238,0,1.293,0,1.24-.072,0,1.777,0,4.477,0,8.118,2.661,8.118,4.606Z" transform="translate(667.709 305.795) rotate(-30)" fill="#e27c6b"/>
      <path id="Path_10848" data-name="Path 10848" d="M8.118,4.606c0,.053.07,1.293-1.776,1.293C3.639,5.9,0,3.238,0,1.293,0,1.24-.072,0,1.777,0,4.477,0,8.118,2.661,8.118,4.606Z" transform="translate(646.766 302.891) rotate(-30)" fill="#e27c6b"/>
    </g>
    <rect id="Bg-2" data-name="Bg" width="35.381" height="35.381" rx="12" transform="translate(819.282 611.845)" fill="#f5c05c"/>
    <rect id="Bg-3" data-name="Bg" width="34.281" height="60.751" rx="9" transform="translate(190.236 586.453)" fill="#4edbe7"/>
    <text id="_" data-name="?" transform="translate(226.648 145.565)" fill="#2b2b2b" font-size="60" font-family="Nunito-Bold, Nunito" font-weight="700" letter-spacing="0.025em"><tspan x="0" y="0">?</tspan></text>
    <text id="_2" data-name="?" transform="matrix(0.966, 0.259, -0.259, 0.966, 255.236, 141.566)" fill="#2b2b2b" font-size="29" font-family="Nunito-Bold, Nunito" font-weight="700" letter-spacing="0.025em"><tspan x="0" y="0">?</tspan></text>
    <text id="_3" data-name="?" transform="matrix(0.966, -0.259, 0.259, 0.966, 214.565, 144.93)" fill="#2b2b2b" font-size="29" font-family="Nunito-Bold, Nunito" font-weight="700" letter-spacing="0.025em"><tspan x="0" y="0">?</tspan></text>
  </g>
</svg>
