<?xml version="1.0" encoding="utf-8"?>
<!-- Generator: Adobe Illustrator 25.0.0, SVG Export Plug-In . SVG Version: 6.00 Build 0)  -->
<svg version="1.1" id="Layer_1" xmlns="http://www.w3.org/2000/svg" xmlns:xlink="http://www.w3.org/1999/xlink" x="0px" y="0px"
	 viewBox="0 0 902 688" style="enable-background:new 0 0 902 688;" xml:space="preserve">
<style type="text/css">
	.st0{fill:#C79464;}
	.st1{fill:#F1F0EB;}
	.st2{fill:#2B2B2B;}
	.st3{fill:#F6A88A;}
	.st4{fill:#488750;}
	.st5{fill:#F2F1EC;}
	.st6{fill:#E27C6B;}
	.st7{fill:#356B3C;}
	.st8{fill:#386346;}
	.st9{fill:#F6A65C;}
	.st10{fill:#F4C05D;}
	.st11{fill:#4EDBE7;}
	.st12{fill:#498851;}
	.st13{fill:#F6C15C;}
	.st14{fill:#081420;}
	.st15{fill:#915949;}
	.st16{fill:#F5C05C;}
	.st17{fill:#FFFFFF;}
	.st18{fill:#343536;}
	.st19{fill:#9C9CA1;}
	.st20{fill:#939498;}
	.st21{opacity:0.4;enable-background:new    ;}
</style>
<g id="Group_69298" transform="translate(11.169 28.327)">
	<path id="Path_5060" class="st0" d="M442.6,196c1.8,0,1.9-2.2,1.9-3.8c0-1.1-0.2-2.3-0.2-3.3c0-0.8,0.3-3.1,0.3-9.7
		c0-4.1-0.1-8.2-0.1-12.3c0-0.8,0-1.6,0-2.4l0-2.6l0,0c0,0,0-2.3,0-2.3c0-7.3-0.1-14.6-0.1-21.9c0-3.4,0-6.8,0.1-10.2
		c-0.1-0.7-0.1-1.6-0.5-2c-0.1-0.1-0.2-0.3-0.3-0.5c0-0.3,0.4-0.4,0.4-0.7c0.1-0.3,0.2-0.6,0.2-0.9c0-0.3,0-0.6-0.1-0.9
		c0.1-0.6,0.1-1.2,0.1-1.8c0-0.6-0.1-1.1-0.2-1.7c-0.1-1.6-0.1-3.2-0.1-4.8c0-2.4,0-4.8,0-7.2c0-3-0.1-5.9-0.3-8.9
		c0.3-0.8,0.5-1.6,0.5-2.4c0-1.2-0.2-2.4-0.4-3.6c0-0.1,0.2-2.7,0.2-5.1c0-4.1-0.3-8.3-0.3-12.4c0-1.1,0-2.3,0.1-3.4
		c0-0.2,0.1-0.5,0.1-0.7c0-0.6-0.1-1.1-0.1-1.6c0.2-1.4,0.3-2.8,0.3-4.1c0-1.2-0.1-2.5-0.2-3.7c0-0.8,0.1-1.5,0.1-2.3
		c0-0.6-0.1-1.2-0.3-1.8l-0.3-0.6c0.1-0.3,0.2-0.6,0.2-0.9c0-0.2,0-0.5,0-0.7c0-0.3,0-0.6,0.1-0.8c0.1-4.1,0.2-8.2,0.2-12.3
		c0-0.2-0.2-32.7-0.2-32.9c-0.2-0.4-0.3-0.8-0.4-1.3c0-0.1,0-0.3,0.1-0.4c0.2-2.5,0.2-5,0.2-7.5c0-2.3-0.1-4.7-0.1-7
		c0-0.3,0.1-0.6,0.1-0.9c0-0.3,0-0.6,0-0.9c0-0.4,0-0.9,0.2-1.3c-0.3-0.7-0.4-1.5-0.4-2.3c0-1.1,0.2-2.3,0.2-3.4c0-1.5,0-3-1.4-3
		c-0.2,0-0.7,0-1.7,0c-3.3,0-6.5-0.4-9.8-0.4c-2.4,0-2.6,0.2-4.3,0.2c-2.4,0-4.8-0.4-7.1-0.6l-1.5,0.1l0,0c-0.2-0.1-0.5-0.1-0.7-0.1
		c-3.2,0-87.7-1-88-1.2c-0.4-0.1-0.8-0.2-1.3-0.2c-1.4,0-2.8,0.7-4.3,0.7c-2.1-0.3-4.2-0.5-6.3-0.5c-1.9,0-3.8,0.1-5.6,0.1
		c-0.2,0-0.5-0.1-0.7-0.1c-0.4,0-0.7,0.2-0.8,1.1c0,0-0.9,0.5-1.1,3.2c-0.2,3.3-3.4,26.9-4.4,31.2c-0.7,2.9-0.6,6.2-1.4,9.1
		c0.1,0.2,0.1,0.5,0.1,0.8c-0.1,0.6-0.3,1.2-0.5,1.8c0,0.2,0,0.5,0,0.7c-0.2,2.9-0.5,5.8-1.1,8.7l0,1.3l0,0
		c-1.2,4.2-1.2,11-3.5,22.7c0,0.2-0.1,0.5,0,0.7c0,0.3,0,0.7,0,1c0,0.4,0,0.8-0.2,1.2c-1.1,10.3-10.6,73.8-10.6,78.7
		c-0.2,0.2-0.4,0.6-0.3,0.9c0,0.1,0,0.2,0,0.3l0,0c-0.5,7.4-3.1,21.4-3.7,28.5c-0.1,0.8,0.1,1.9-0.7,1.9c0,0-0.1,0-0.1,0v0.6
		C286,176.3,442.4,196,442.6,196z M443.6,164.2c-0.1,0-0.2-0.1-0.3-0.2C443.4,164.1,443.5,164.1,443.6,164.2
		C443.6,164.1,443.6,164.1,443.6,164.2L443.6,164.2z"/>
	<path id="Path_2207" class="st1" d="M299.7-27.3c-0.5,0-0.9-0.2-1.3-0.4c-1.9,0.3-4,0-5.7,1.1v4c0.5,1.3,0.5,2.7,0,4v2.3
		c0.8,1.8,1.1,3.8,1,5.7c0,0.5,0,1.1,0,1.6c0,0.8,0,1.5,0.1,2.2c1.5,16.5-1,20.6,3.6,20.6c1.7,0,2.2-0.4,6.5-0.4c1.1,0,2.2,0,3.3,0
		c0.4,0,0.7,0,1.1,0c0.9,0.4,2,0.4,2.9,0h1h4.8c4.8,0,6.5,0,6.9,0c1-0.2,2.1,0.3,2.7,1.2c0.8-0.3,1.7-0.5,2.6-0.5c0.5,0,1.1,0,1.6,0
		c0.9,0,1.1-0.1,1.4-0.1c2.9,0,12.6,20.1,16.8,20.9c1.2-0.2,1.3-1.1,1.3-2c-0.3-6.7-4.1-15.8-4.1-18.2c0-0.7,0.3-1.1,1.3-1.1
		c0.6,0,1,0.1,2.6,0.1c1.3,0,2.7-0.1,4-0.1c1.8,0,2.1,0.2,2.9,0.2c2,0,3.1-1.1,3.5-3.6c1.8-10.7,3.5-30,3.5-31.5
		c0-3.4-0.7-5.8-4.2-5.8c-0.9,0-2.4,0.3-6.5,0.3c-0.4,0-17.1-0.4-26.3-1.8c0,0.7-0.6,1.3-1.4,1.3c0,0-0.1,0-0.1,0
		c-0.4,0-0.8-0.1-1.2-0.1c-0.2,0-3.4,0.1-7.5,0.1c-5.2,0-10.5-0.2-15.7-0.7C300.4-27.5,300-27.3,299.7-27.3z"/>
	<g id="Group_174" transform="translate(1083.8 230.864)">
		<path id="Path_2260" class="st2" d="M-669.2-202.9c-1.3,0-4.2,3.5-4.2,3.5s-2.6-5.9-5-7.5c-1.6-1-15.4-1.7-25.7-1.7
			c-3.6-0.1-7.2,0.1-10.8,0.5c-4.6,1.1-21.8,30.5-23.2,34.8l6.3,5.3l5.4-5.3c0,0-3,10-3,11.7c0,0.1,0,0.1,0,0.2c0,0,0.3,0,0.8,0
			c2.3,0,8.8,0.2,12.8,2.6c0,0,25.4-6.8,27-6.8c2.8,0,5.8,2.2,5.8,2.2l5,2.9l3.5-5.7l-2.8,7.8l2.7,2.1c0,0,7.3-23.4,7.3-33.3
			c-0.1-4.3-0.5-8.5-1.2-12.7C-668.7-202.7-668.9-202.9-669.2-202.9z"/>
		<path id="Path_2261" class="st3" d="M-674.6-193c-1.2,4-1.8,8.1-1.8,12.3c0,2,0.1,3.9,0.5,5.8c0,0-8.5,13-9.6,16
			c-0.1,0.5-0.6,0.9-1.1,0.9c-1.8,0-4.9-3.1-6.8-3.1c-2.9,0-6.3,24.7-6.3,24.7s-15.4-7.6-19.7-15.2c6.6-5.7,10.4-14,10.3-22.7
			c0-0.3,0-0.4,0-0.4s-7.3-6-7.3-12.4c0-3.5,1.9-6,5.5-6c3.3,0,6.8,2.3,6.8,4.9c0,2.4-0.8,4.8-2.2,6.8c0,0,4.8,1.8,7.7,1.8
			c0.2,0,0.4,0,0.6,0l3-6c0,0-0.2,5-1.4,7.1l5.9,1.7c0,0,3.8-3.5,5-7.4l-2,7.2l3.8,0.7C-679.9-181.3-676.8-187-674.6-193z"/>
		<path id="Path_2262" class="st4" d="M-719.9-152.2c-1.3-1-2.9-1.6-4.5-1.6c-4.8,0-8.9,5.6-10.6,14.5
			c-2.2,11.6-18.7,90.2-18.7,90.2s25,1.8,36.1,2.7s43.4,1.9,43.4,1.9s-5.7-22.7-5.8-28.6c0,0,11.9,9.3,15.2,9.3
			c2.9,0,36.5-51.5,36.5-51.5l-13.5-21.8c0,0-26.7,33.1-27.1,33.1l0,0c0,0,0-0.1,0-0.1c0-0.7-0.8-2.8-2.2-2.8
			c-0.3,0-0.7,0.1-0.9,0.3l-23.3-32.6l-3.1-4.9L-719.9-152.2z"/>
		<path id="Path_2263" class="st3" d="M-635-140.1c0,0,6.6-6.5,6.6-18.7c0-5.9-2.9-11-2.9-12.2c0-0.4,1.1-0.4,1.1-0.4
			c9,0,6,12.4,10,12.4c3.8,0,7.2-6.4,10.7-6.4c1.6-0.1,2.9,1.1,3,2.7c0,0.1,0,0.2,0,0.3c0,0.9-0.2,1.8-0.6,2.5l0,0l-0.8,0.8l1-1.1
			c1.1,1,1.8,2.4,1.8,3.9v0.1c0,0,0.3,4.2,0.3,6.2c0,0.2,0,0.4,0,0.6c0.6,1.6,0.9,3.3,1,4.9c0.1,0.7-0.1,1.3-0.6,1.8
			c-1.6,1-6.5,7.8-8.6,8.9c-2.1,1-10.1,4.4-13,8.2L-635-140.1z"/>
		<path id="Path_2264" class="st5" d="M-714-157.6c4.8,5,10.1,9.5,15.8,13.5l-2.4,9.8c0,0-18-15.1-19.9-19.2c0,0,7-5.7,7.5-5.7
			c0,0,0,0,0,0c0,0.1-0.1,0.2-0.4,0.6L-714-157.6z"/>
		<path id="Path_2265" class="st5" d="M-697.3-149.7l2.8,11.5l-3.7-5.9L-697.3-149.7z"/>
		<path id="Path_2266" class="st5" d="M-636.5-142.5l15.2,24.3l-5,5.9l-15.9-25.6L-636.5-142.5z"/>
		<path id="Path_2267" class="st6" d="M-692.9-161c0.1,0,0.3,0,0.4,0.1c-2.8-1.3-8.8-6.5-8.8-6.5s3.1,8.3,5.4,11.4
			C-696-155.9-694.6-161-692.9-161z"/>
		<path id="Path_2268" class="st6" d="M-689.9-175.4c-1.1,0-1.9,0.6-1.9,1.4c0,1.3,1.8,2.7,3.5,2.7c1.1,0,1.9-0.6,1.9-1.4
			C-686.4-174.1-688.2-175.4-689.9-175.4z"/>
		<path id="Path_2269" class="st6" d="M-634.6-140.7c3.6,4.5,7.7,8.5,12.3,11.9c-1.4,0.9-2.6,2-3.7,3.3l-9-14.6L-634.6-140.7z"/>
		<path id="Path_2270" class="st7" d="M-679.9-73.1c-12.7-10.3-32.2-27.1-32.2-27.1s21.7,30.5,34.4,40.8L-679.9-73.1z"/>
		<path id="Path_2271" class="st7" d="M-695.1-139.2l-0.2,1.4l-3.5-3.9l0.6-2.4L-695.1-139.2z"/>
		<path id="Path_2272" class="st7" d="M-702.8-136.2l-0.8,2.9c0,0-7-9.7-11.2-13.7L-702.8-136.2z"/>
		<path id="Path_2273" class="st8" d="M-641.2-136.3c0,0,10,17.4,10.9,24.2l2.1-3.2L-641.2-136.3z"/>
		<path id="Path_2274" class="st9" d="M-721.1-150.1c-0.7-1.3-2.1-2.1-3.6-2.2c-1.5,0-4.6,2.5-4.6,2.5l1.9-0.6l-1.8,3
			c0,0,2.9-2.6,4.2-2.6c1.3,0,2.7,2.3,2.7,2.3l-1.1-3.2L-721.1-150.1z"/>
		<path id="Path_2275" class="st9" d="M-662.9-69.5c-1.5,1.3-2.4,3.1-3.3,3.1c-0.1,0-0.3,0-0.4-0.1c-1-0.6-5.6-3-5.6-3l3,0.5
			l-1.5-1.7c0,0,1.8,2.3,3.1,2.3c0.2,0,0.4-0.1,0.6-0.2c1.2-1,2.9-2.5,2.9-2.5l-0.4,1.8L-662.9-69.5z"/>
		<path id="Path_2276" class="st9" d="M-672.2-70.7L-672.2-70.7c0-1.3-2.7-2.8-2.7-2.8L-672.2-70.7z"/>
		<g id="Group_172" transform="translate(40.99 16.853)">
			<path id="Path_2277" class="st6" d="M-750.7-197.7c0.9,0,2.8-3.7,2.8-6.1c0-3.9-4.3-4.8-5.1-4.8c-0.4,0-0.7,0.3-0.8,0.6
				s0.3,0.7,0.6,0.8c0.7,0.1,3.8,0.6,3.8,3.4c0,2.7-2.1,4.8-2.1,5.4C-751.4-198-751.1-197.7-750.7-197.7L-750.7-197.7z"/>
		</g>
		<g id="Group_173" transform="translate(38.829 19.46)">
			<path id="Path_2278" class="st6" d="M-753-204.9c0.2,0,0.4-0.1,0.6-0.3c0.1-0.2,1.6-2,3.5-2c1.4,0,1.9,0.9,2.5,0.9
				c0.4,0,0.7-0.3,0.7-0.7c0-0.7-1.8-1.6-3.2-1.6c-2.4,0-4.7,2.3-4.7,3C-753.7-205.2-753.4-204.9-753-204.9z"/>
		</g>
	</g>
	<g id="Group_69299" transform="translate(385.429 -2059.168)">
		<g id="Group_69253" transform="translate(683.229 2252.16)">
			<path id="Path_6360" class="st10" d="M-747.5-196.3l-2.4-4.5h-0.4v4.5h-3.4v-12.3h5.4c0.9,0,1.7,0.2,2.5,0.5
				c0.6,0.3,1.2,0.8,1.6,1.4c0.4,0.6,0.5,1.3,0.5,2c0,0.8-0.2,1.6-0.7,2.2c-0.5,0.7-1.2,1.1-2,1.4l2.8,4.8L-747.5-196.3z
				 M-750.3-203.2h1.7c0.4,0,0.8-0.1,1-0.3c0.2-0.3,0.4-0.6,0.4-1c0-0.3-0.1-0.7-0.4-0.9c-0.3-0.2-0.7-0.4-1-0.3h-1.7L-750.3-203.2z
				"/>
			<path id="Path_6361" class="st10" d="M-737.6-205.8c0.5-0.3,1.1-0.4,1.7-0.4c0.8,0,1.5,0.2,2.1,0.6c0.7,0.4,1.2,1,1.5,1.7
				c0.4,0.8,0.6,1.7,0.5,2.7c0,0.9-0.2,1.8-0.5,2.7c-0.3,0.7-0.8,1.3-1.5,1.8c-0.6,0.4-1.4,0.6-2.1,0.6c-0.6,0-1.2-0.1-1.7-0.4
				c-0.5-0.3-0.9-0.6-1.1-1.1v6h-3.4v-14.5h3.4v1.4C-738.4-205.2-738-205.6-737.6-205.8z M-735.7-202.7c-0.7-0.7-1.8-0.7-2.5,0
				c0,0,0,0,0,0c-0.4,0.4-0.5,0.9-0.5,1.5c0,0.5,0.2,1.1,0.5,1.5c0.7,0.7,1.8,0.7,2.5,0.1c0,0,0,0,0.1-0.1c0.4-0.4,0.5-0.9,0.5-1.5
				C-735.1-201.7-735.3-202.3-735.7-202.7z"/>
		</g>
	</g>
</g>
<path id="Bg" class="st11" d="M853.2,619.3H882c11,0,20,9,20,20V668c0,11-9,20-20,20h-28.8c-11,0-20-9-20-20v-28.8
	C833.2,628.2,842.2,619.3,853.2,619.3z"/>
<g id="woman_sitting" transform="translate(1146.16 307.349)">
	<path id="Path_2157" class="st2" d="M-380.3,299.8V114.5h-11.2v185.3l-33.1,9.9h78.4L-380.3,299.8z"/>
	<path id="Path_2158" class="st12" d="M-490.1,66.4c-0.9-9.7-1.4-19.5-1.4-29.2c0-139.4,113.1-145.4,115.3-145.4
		c22.7,0,64.6,5.3,75.1,22.9c6.8,11.5,12.4,40,12.4,70.3c0,90.8-55.7,140.7-132.2,140.7c-14.6,0-22.3-1.5-22.3-1.5L-490.1,66.4z"/>
	<path id="Path_2159" class="st2" d="M-374.9-200.6c0,0,12.7-7.7,15.7-7.8c0.7,0,1.6-0.1,2.8-0.1c9.5,0,13.9,6.2,13.9,20.7
		c0,8.7-1.9,17.1-3.1,19.8c-1.1,7.6-2.9,15.1-5.4,22.4c-2.2,6.4-4.8,12.6-7.7,18.8l-5.6-3.4l2.7-4l-3.7,3l-4-7.8L-374.9-200.6z"/>
	<path id="Path_2160" class="st9" d="M-580,41.9c0,12.8,33.4,34.8,47.9,59.3c9.8,16.5,28.6,33,28.6,33s-31.9-68.9-40.4-84.8
		c-6-11.2-17.2-14.6-25.2-14.6C-578.3,34.8-580,38.5-580,41.9z"/>
	<path id="Path_2161" class="st5" d="M-367.3-198l10-6.5c0,0,5.9,0.9,6.2,6.5l-8.1,11.6L-367.3-198z"/>
	<path id="Path_2162" class="st2" d="M-416.6-166c0,0-4-1.6-4-9.4c0-20,16.9-26.7,30.8-26.7c7.8,0,15.7,1,22.4,4.2
		s14.1,15.5,14.1,29.2c-0.1,10.5-4.5,20.6-12.2,27.8c0,0-12.1,4.9-13.8,8.9L-416.6-166z"/>
	<path id="Path_2163" class="st3" d="M-413.6-175.6c0,0-6.4,18.5-6.4,27.9c0,8.7,3.6,15.6,7.3,16.3c1.4,0.3,2.8,0.4,4.2,0.4
		c1.5,0,3-0.1,4.5-0.4c0,0-2.9,11.1-6.6,18c0,0,7.8,15.2,10.7,15.2c3,0,19.6-15.8,19.6-15.8s-0.1-2.1-0.1-5.1
		c0-17.2,4.8-21.7,4.8-21.7c1.4,0.8,3,1.1,4.6,1.1c10,0,11-10,11-11.4c0-5.7-4.4-7.3-6.6-7.3c-9.6,0-11.1,15.9-11.1,15.9l-5.8-1
		l1.5-10.9l-2.9,10.1l-1.9-1.8l4-14.9c0,0-2.2-1.1-7.1-3.2l2.1-6.5c0,0-1.9,3.5-3.3,6.4c-4-0.6-8-1.6-11.7-3l1.1-6.6l-3.7,5.4
		l-7.7-1.9L-413.6-175.6z"/>
	<path id="Path_2164" class="st0" d="M-415.8-107.9c-3.7-1.1-10.2-6.1-15.8-6.1c-1,0-1.8-4.3-51.6,42.5c-5,4.8-10.3,9.1-16,13
		c-0.8-0.7-1.8-1.1-2.8-1.2c-1,0-2.2,0.6-3,2.5l-22.6-54.4l-35.8,16.4c0,0,25.9,86,42.9,86c5.8,0,43-20.5,50.6-24.8
		c4.7-2.7,9.6-5,14.6-6.9l-7.7,27.9c0,0,26.3,4.7,37.3,9.4s31,15.5,31,15.5l7.9-9.1c0,0,13.8,9.1,18.5,9.1
		c5.6,0,33.5-55.6,33.5-75.4c0.1-2.1-0.3-4.2-1-6.2c-2.5-5.4-41.9-36.1-41.9-36.1l-22.1,7.6L-415.8-107.9z"/>
	<path id="Path_2165" class="st3" d="M-400.9-54.8c-3.1-1.7-6-3.8-8.7-6.1c-5.4-4.4-15.8-14.2-18-15.3c-1.9-0.9-9.4-3.8-12-3.8
		c-0.5,0-0.8,0.1-0.9,0.3c-0.6,1.4-1,2.5-1,2.5s-4.8-2-6-2c-0.1,0-0.2,0-0.2,0.1c-0.1,0.3-0.1,0.5-0.1,0.8c0,1.9,1,3.6,2.6,4.4
		c1.5,0.7,2.9,1.6,4.3,2.5c-0.3,1-0.5,2-0.6,3c0,0.4,0.1,0.7,0.3,1c-0.3,1.2-0.5,2.5-0.5,3.7c0,0.7,0.1,1.2,0.4,1.3
		c-0.3,1.2-0.4,2.4-0.5,3.6c0,0.8,0.1,1.4,0.5,1.6c1.1,0.6,8,6.8,13.3,7.5s12.4,4.7,19.1,12.7L-400.9-54.8z"/>
	<path id="Path_2166" class="st3" d="M-555.6-111.6c0,0-1.1-13-2.5-21.7c-1-6.6-3-7.9-4.1-7.9c-1.4,0-3.3,4.8-8,4.8
		c-4.4,0-9.1-7.8-9.1-8.3c0-0.6,1.4-1.5,2.9-1.5c3.1,0,3,3,5.2,3c1.6,0,3-1.7,3.7-2.3c0.5-0.4,0.8-1.8,0.8-3.3
		c0.1-1.3-0.2-2.6-0.8-3.8c-0.9-1.2-5.7-3.6-7-3.6c-0.2,0-0.3,0.1-0.3,0.2c0.1,0.6,0.1,1.3,0.1,1.9c0,5.6-1.6,7.2-3.7,7.2
		c-0.6,0-1.2-0.1-1.8-0.4c0.5-2.1,0.7-4.2,0.8-6.4c0-1.4-0.2-3-0.2-4.4c0-2.8,0.7-2.7,4-2.7c2.8,0,6.3,0.2,6.3,0.2
		c-3.8-2.6-7.3-5.7-10.2-9.3c-3.9-5.1-6.4-8.7-6.4-10.2c0-1.4,1-3.7,1.6-3.7c0.4,0,5.2,6.9,8.2,9.9c2.5,2.5,3.7,3.6,3.7,3.6
		s-4.4-8.6-4.4-12.7c0-2.5,1.2-3.7,2.3-3.7c0.6,0,1.1,0.2,1.6,0.5c0,0,1.8,8.2,4.4,12.7c1.2,2.3,2.8,4.5,4.6,6.4
		c-0.5-1.7-0.8-3.4-0.8-5.1c0-4.2,1.9-7.8,3.4-7.8c0.5,0,0.7,0.3,0.7,1.6c0,1-0.1,2.4-0.1,4c0,9.3,10.8,20.2,14.2,30.3
		c1.7,5,9.9,25,9.9,25L-555.6-111.6z"/>
	<path id="Path_2167" class="st3" d="M-568.2,39.6c0,0-26.5,34.2-37.7,47.3s-18.7,22-18.7,22s8.1,17.2,24,18.7
		c0,0,16.4-19.5,31.3-32.3s30.1-28.4,30.1-28.4S-544.2,52.9-568.2,39.6z"/>
	<path id="Path_2168" class="st3" d="M-535.5,76.5c0,0-4.1,43.9-4.1,88.2c0,14.7,0.4,24,0.4,24c4.6,1.2,9.4,1.8,14.2,1.8
		c7,0.1,14-1.3,20.4-4c0,0,0.8-26.9,3.1-48.7C-501.5,137.7-522.6,118.4-535.5,76.5z"/>
	<path id="Path_2169" class="st5" d="M-380.3-114c-6.1,3.3-19.6,15.8-19.6,15.8s0.2,14.5,1.6,14.5c1.2,0,21.7-23.6,21.7-23.6
		s-0.9-7.5-3.8-9.3L-380.3-114z"/>
	<path id="Path_2170" class="st5" d="M-399.9-98.2c-3.4,2.6-9.6,11.4-11.4,11.4c-1.6,0-4.5-19.6-4.5-21.3c0-2.1,4.3-7.2,6.1-7.2
		c0,0,0.1,0,0.1,0l-0.9,1.8C-410.6-113.4-405.8-103.8-399.9-98.2z"/>
	<path id="Path_2171" class="st5" d="M-399.9-57.2l-13.6,29.6l6.8,7.5l15-32.8L-399.9-57.2z"/>
	<path id="Path_2172" class="st5" d="M-570.3-105.9l40.2-15.5l4.4,8.9c0,0-19.3,8.5-26.9,11.9c-4.3,1.9-8.4,4-12.4,6.3L-570.3-105.9
		z"/>
	<path id="Path_2173" class="st13" d="M-463.1-12.9c0,0-2.1,4.1-3.7,4.1c-1.2,0-4-5.2-7.9-5.2c-2.9,0-29.4-6.9-35.3-6.9
		c-3.7,0-24.6,22.1-42.3,35.1c-26.4,19.4-30,18-30,25.8c0,5.7,5.6,10.6,5.6,10.6s-2.8-5.5-2.8-8.9c0-2.5,1.6-2.9,3.8-2.9
		c52,0,32.6,115.9,124.1,115.9c6.3,0,11.1-0.5,12.3-1c3.3-1.4,20-94.5,25.8-99.8c10.6-9.7,22.4-14.4,22.4-23c0-7.2-3.7-19-3.7-19
		S-421.4-8.5-463.1-12.9z"/>
	<path id="Path_2174" class="st14" d="M-527.9,190.1c8.1,0,16.1-1.9,23.4-5.5c0.1,0,0.2-0.1,0.3-0.1c0.3,0,0.8,0.2,0.8,1.3
		c0,4.7-2.6,0.8-2.6,25.4c0,22.9,4.5,100.7,4.5,100.7h-15.4l-2.4-23.9c0,0-17.3,17.9-24.8,23.9h-44.2c0,0-5.7-4.9-5.7-8
		c0-2.8,4.6-3.8,32.9-18.6c6-3.1,23.8-34.8,23.8-46.1c0-11.4-3.3-34.8-3.3-46.2c0-3.4,0.3-5.7,1.1-6.3l0.4,2
		C-535.5,189.7-531.7,190.2-527.9,190.1z"/>
	<path id="Path_2175" class="st14" d="M-599.3,126.1c0.4,0.5,0.6,1.2,0.6,1.9c0,1.2-0.9,2.8-4.6,3.7c-11.6,3-68.8,96-68.8,96
		l-10.2-6.9l15.5-28.4c0,0-39.8,7.5-42.4,7.8l-44.5-28.4c-0.1-0.7-0.1-1.4-0.1-2.1c0-10,6.2-9.2,6.4-9.2c8.2,0,30.8,6.8,39.3,6.8
		c7.9,0,38.5-7.6,44.1-12.6c6.9-6.2,39.6-48.7,39.9-48.7c0.5,0.1,0.9,0.3,1.2,0.7l-1.8,2.1C-624.6,108.9-618.1,125-599.3,126.1z"/>
	<path id="Path_2176" class="st6" d="M-404-131.4c6.6-0.4,11.1-0.8,11.1-0.8s-5.8,7.6-14.3,10.7L-404-131.4z"/>
	<path id="Path_2177" class="st6" d="M-394-150.7c0,1.3-1.4,1.9-3,1.9c-2.8,0-5.6-1.8-5.6-3.6c0-1.3,1.4-1.9,3-1.9
		C-396.8-154.4-394-152.5-394-150.7z"/>
	<path id="Path_2178" class="st6" d="M-413.6-155.9c0,1.3-1.4,1.9-3,1.9c-2.8,0-5.6-1.8-5.6-3.6c0-1.3,1.4-1.9,3-1.9
		C-416.4-159.5-413.6-157.7-413.6-155.9z"/>
	<g id="Group_169" transform="translate(377.558 53.056)">
		<path id="Path_2179" class="st6" d="M-752.5-196.9c-0.7,0-1.2-0.5-1.2-1.2c0-0.4,3.8-10.5,9.7-10.5c1.8,0,4.2,1.2,4.2,2.4
			c0,0.7-0.5,1.2-1.2,1.2l0,0c-0.9,0-1.3-1.2-3-1.2c-3.3,0-6.5,6.2-7.4,8.5C-751.5-197.2-752-196.9-752.5-196.9z"/>
	</g>
	<g id="Group_170" transform="translate(381.978 55.136)">
		<path id="Path_2180" class="st6" d="M-749.3-199c-0.7,0-1.2-0.5-1.2-1.2c0-0.7,1-1.6,1-3.3c0-3.3-4.1-1.8-4.1-3.9
			c0-0.7,0.5-1.2,1.2-1.2c0.1,0,5.3,0.4,5.3,5C-747.1-202.3-747.8-199-749.3-199z"/>
	</g>
	<path id="Path_2181" class="st6" d="M-536.5-118.9c-6.5,1.1-13,1.9-19.5,2.3l0.5,5L-536.5-118.9z"/>
	<path id="Path_2182" class="st6" d="M-403.6-56.4l-5.5,19.2l8.1-17.7L-403.6-56.4z"/>
	<path id="Path_2183" class="st6" d="M-576.7,50.6c0,0,10.8,1.5,18.1,9.8c4.1,4.6,7.7,9.7,10.7,15.2l7.4-7.3
		c-2.8-5.9-6.5-11.4-11-16.2c-4.8-5.1-10.6-9.2-17.1-11.8L-576.7,50.6z"/>
	<path id="Path_2184" class="st6" d="M-536.6,91.5c1.3,3.9,26.3,51.8,34.5,53.3l0.7-6.5c-7-7.2-13.1-15.1-18.4-23.7
		c-8.3-13.6-10.6-27.2-15.8-36.1L-536.6,91.5z"/>
	<path id="Path_2185" class="st9" d="M-436.7-7.7c0,0,9.9,16.3,9.9,23.8c0,7.9-24.9,7.1-33.2,21.3c-6.6,11.3-5.8,50.4-15.8,74.2
		s-26.8,25-26.8,25s9.6,11.2,24.7,15.1c8.1,2.1,17.4,2.7,24.9,2.7c4.6,0,9.1-0.2,13.7-0.7c0,0,2.3-5.6,10.6-42.1
		s12.5-55.3,15.2-57.7S-391.3,39-391.3,33c0-5.3-3.6-21.1-3.6-21.1S-416.8-3.4-436.7-7.7z"/>
	<path id="Path_2186" class="st15" d="M-386.9,2.8c-8.8-9.4-18.7-25.3-18.7-25.3l-1.1,2.4l-3.4-3.8c0.9,2.8,1.4,5.8,1.4,8.7
		c0,5.7-2.2,12.2-11.8,12.8c0,0,20.5,9,25.7,14.2L-386.9,2.8z"/>
	<path id="Path_2187" class="st15" d="M-375.2-45.3c-4.2,0-16.6-5.8-16.6-5.8l18.8,12.5c-0.1-0.7-0.2-1.4-0.2-2.1
		c0-1.1,0.2-2.2,1.1-2.2c0.7,0,1.9,0.7,3.7,2.9v-16.4C-368.4-56.4-371.1-45.3-375.2-45.3z"/>
	<path id="Path_2188" class="st15" d="M-455.4-40.9c0.6-6,1.9-11.9,3.9-17.6L-462-38.1L-455.4-40.9z"/>
	<path id="Path_2189" class="st15" d="M-409.1-88.4l1.2,3.6l8.1-9.5l-0.1-3.9L-409.1-88.4z"/>
	<path id="Path_2190" class="st15" d="M-395-86.8l2.2,4.2l17.9-20.9l-3-2.3L-395-86.8z"/>
	<path id="Path_2191" class="st15" d="M-531.1-110.1l-30.1,22l-2.4-7L-531.1-110.1z"/>
	<path id="Path_2192" class="st13" d="M-374.9,6.7c1.8,1.1,3.5,2,5,2c0.5,0,1-0.1,1.4-0.4c1.7-1,4.2-7.3,4.2-7.3l-4.2,4.8V2.1
		c0,0-0.5,3.4-2,3.4c-0.5,0-0.9-0.3-1.2-0.6c-1.3-1.4-3.1-2.3-5-2.6L-374.9,6.7z"/>
	<path id="Path_2193" class="st5" d="M-513.3-15.1c1.9-2.2,4.4-3.8,5.4-3.8c1.7,0,6.1,1.9,6.1,1.9l-4.8,0l3.1,2.9
		c0,0-7.1,1.2-9.8,3.9l2.7-4.4L-513.3-15.1z"/>
	<path id="Path_2194" class="st12" d="M-379.8,20.1c0-10-7.1-17.3-7.1-17.3c-6.1-2.5-12.7-3.8-19.3-3.9c-17,0-37.1,10.1-37.1,52.6
		c0,34,11.5,74.1,11.5,74.1S-379.8,32.5-379.8,20.1z"/>
	<path id="Path_2195" class="st2" d="M-368.6,11.9c0,0-0.1,0-0.3,0c-1.8,0-11.9-0.5-27.9-12l9.8,2.9C-381.2,6.6-375,9.7-368.6,11.9z
		"/>
	<path id="Path_2196" class="st0" d="M-323.4,66.9c-2.9,5.4-6.8,10.1-11.5,14c0,0,2.6,0,7-2.5l-7,9.3c0,0,8-4.3,13-10.3s5.8-8,5.8-8
		l-8.3,5.4L-323.4,66.9z"/>
	<path id="Path_2197" class="st0" d="M-313,51.3c-1.3,3.1-6.2,13.5-6.2,15.4c0,0.2,0.1,0.3,0.2,0.3c1.1,0,7.2-7.8,7.2-7.8l-3.7,1.9
		L-313,51.3z"/>
</g>
<g id="Group_69291" transform="translate(522.189 -1737.25)">
	<path id="Rectangle_930" class="st16" d="M-7.2,2072.2L-7.2,2072.2c0,18.5-15,33.5-33.5,33.5l0,0c-18.5,0-33.5-15-33.5-33.5l0,0
		c0-18.5,15-33.5,33.5-33.5l0,0C-22.2,2038.7-7.2,2053.7-7.2,2072.2z"/>
	<g id="Group_69253-2" transform="translate(693.576 2265.785)">
		<path id="Path_6360-2" class="st17" d="M-742.7-186.9l-4.3-8h-0.6v8h-6v-21.7h9.5c1.5,0,3,0.3,4.4,0.9c1.1,0.5,2.1,1.4,2.7,2.5
			c0.6,1.1,0.9,2.3,0.9,3.6c0,1.4-0.4,2.8-1.2,3.9c-0.9,1.2-2.1,2-3.6,2.4l4.9,8.5L-742.7-186.9z M-747.7-199h3
			c0.7,0.1,1.3-0.2,1.8-0.6c0.4-0.5,0.7-1.1,0.6-1.7c0-0.6-0.2-1.2-0.6-1.6c-0.5-0.4-1.2-0.6-1.8-0.6h-3L-747.7-199z"/>
		<path id="Path_6361-2" class="st17" d="M-725.3-203.7c0.9-0.5,2-0.7,3-0.7c1.3,0,2.6,0.4,3.7,1.1c1.2,0.8,2.1,1.8,2.7,3.1
			c0.7,1.5,1,3.1,1,4.7c0,1.6-0.3,3.2-1,4.7c-0.6,1.3-1.5,2.3-2.7,3.1c-1.1,0.7-2.4,1.1-3.7,1.1c-1.1,0-2.1-0.2-3-0.7
			c-0.8-0.4-1.5-1.1-2-1.9v10.7h-6v-25.5h6v2.4C-726.8-202.6-726.1-203.2-725.3-203.7z M-721.9-198.2c-1.2-1.2-3.2-1.3-4.4-0.1
			c0,0,0,0-0.1,0.1c-0.6,0.7-1,1.7-0.9,2.6c-0.1,1,0.3,1.9,0.9,2.6c1.2,1.2,3.1,1.3,4.3,0.1c0,0,0.1-0.1,0.1-0.1
			c0.6-0.7,1-1.7,0.9-2.6C-720.9-196.5-721.3-197.4-721.9-198.2L-721.9-198.2z"/>
	</g>
</g>
<g id="Group_69292" transform="translate(504.958 -1675.25)">
	<path id="Rectangle_930-2" class="st16" d="M-51,2050.7L-51,2050.7c0,6.6-5.4,12-12,12l0,0c-6.6,0-12-5.4-12-12l0,0
		c0-6.6,5.4-12,12-12l0,0C-56.3,2038.7-51,2044-51,2050.7z"/>
	<g id="Group_69253-3" transform="translate(684.266 2253.717)">
		<path id="Path_6360-3" class="st17" d="M-749.9-201l-1.5-2.8h-0.2v2.8h-2.1v-7.6h3.3c0.5,0,1.1,0.1,1.5,0.3c0.4,0.2,0.7,0.5,1,0.9
			c0.2,0.4,0.3,0.8,0.3,1.2c0,0.5-0.1,1-0.4,1.4c-0.3,0.4-0.7,0.7-1.2,0.8l1.7,3L-749.9-201z M-751.6-205.3h1c0.2,0,0.5-0.1,0.6-0.2
			c0.2-0.2,0.2-0.4,0.2-0.6c0-0.2-0.1-0.4-0.2-0.6c-0.2-0.2-0.4-0.2-0.6-0.2h-1L-751.6-205.3z"/>
		<path id="Path_6361-3" class="st17" d="M-743.8-206.9c0.3-0.2,0.7-0.3,1.1-0.2c0.5,0,0.9,0.1,1.3,0.4c0.4,0.3,0.7,0.6,0.9,1.1
			c0.2,0.5,0.4,1.1,0.3,1.6c0,0.6-0.1,1.1-0.3,1.6c-0.2,0.4-0.5,0.8-0.9,1.1c-0.4,0.3-0.8,0.4-1.3,0.4c-0.4,0-0.7-0.1-1.1-0.2
			c-0.3-0.2-0.5-0.4-0.7-0.7v3.7h-2.1v-8.9h2.1v0.8C-744.3-206.5-744.1-206.7-743.8-206.9z M-742.6-205c-0.4-0.4-1.1-0.4-1.5,0
			c0,0,0,0,0,0c-0.2,0.3-0.3,0.6-0.3,0.9c0,0.3,0.1,0.7,0.3,0.9c0.4,0.4,1.1,0.4,1.5,0c0,0,0,0,0,0c0.2-0.3,0.3-0.6,0.3-0.9
			C-742.3-204.4-742.4-204.7-742.6-205L-742.6-205z"/>
	</g>
</g>
<g id="Group_69295" transform="translate(411.636 -1444.25)">
	<path id="Rectangle_930-3" class="st16" d="M-39.6,2056.2L-39.6,2056.2c0,9.7-7.8,17.5-17.5,17.5l0,0c-9.7,0-17.5-7.8-17.5-17.5
		l0,0c0-9.7,7.8-17.5,17.5-17.5l0,0C-47.5,2038.7-39.6,2046.5-39.6,2056.2z"/>
	<g id="Group_69253-4" transform="translate(686.759 2256.809)">
		<path id="Path_6360-4" class="st17" d="M-748-197.4l-2.2-4.1h-0.3v4.1h-3.1v-11.2h4.9c0.8,0,1.6,0.1,2.3,0.5
			c0.6,0.3,1.1,0.7,1.4,1.3c0.3,0.6,0.5,1.2,0.5,1.8c0,0.7-0.2,1.4-0.6,2c-0.5,0.6-1.1,1-1.8,1.2l2.5,4.4L-748-197.4z M-750.6-203.7
			h1.5c0.3,0,0.7-0.1,1-0.3c0.2-0.2,0.3-0.6,0.3-0.9c0-0.3-0.1-0.6-0.3-0.9c-0.3-0.2-0.6-0.3-0.9-0.3h-1.5L-750.6-203.7z"/>
		<path id="Path_6361-4" class="st17" d="M-739-206.1c0.5-0.3,1-0.4,1.6-0.4c0.7,0,1.4,0.2,1.9,0.6c0.6,0.4,1.1,0.9,1.4,1.6
			c0.3,0.8,0.5,1.6,0.5,2.4c0,0.8-0.2,1.7-0.5,2.4c-0.3,0.7-0.8,1.2-1.4,1.6c-0.6,0.4-1.2,0.6-1.9,0.6c-0.5,0-1.1-0.1-1.6-0.4
			c-0.4-0.2-0.8-0.6-1-1v5.5h-3.1v-13.2h3.1v1.2C-739.8-205.5-739.5-205.8-739-206.1z M-737.3-203.2c-0.6-0.6-1.6-0.6-2.3,0
			c0,0,0,0,0,0c-0.3,0.4-0.5,0.9-0.5,1.4c0,0.5,0.1,1,0.5,1.4c0.6,0.6,1.6,0.7,2.2,0.1c0,0,0,0,0.1-0.1c0.3-0.4,0.5-0.9,0.5-1.4
			C-736.8-202.4-737-202.8-737.3-203.2L-737.3-203.2z"/>
	</g>
</g>
<g id="Group_69294" transform="translate(629.5 -1896.25)">
	<path id="Rectangle_930-4" class="st16" d="M-39.2,2056.2L-39.2,2056.2c0,9.7-7.8,17.5-17.5,17.5l0,0c-9.7,0-17.5-7.8-17.5-17.5
		l0,0c0-9.7,7.8-17.5,17.5-17.5l0,0C-47,2038.7-39.2,2046.5-39.2,2056.2z"/>
	<g id="Group_69253-5" transform="translate(686.853 2256.932)">
		<path id="Path_6360-5" class="st17" d="M-747.9-197.2l-2.3-4.2h-0.3v4.2h-3.2v-11.3h5c0.8,0,1.6,0.1,2.3,0.5
			c0.6,0.3,1.1,0.7,1.4,1.3c0.3,0.6,0.5,1.2,0.5,1.9c0,0.7-0.2,1.4-0.6,2c-0.5,0.6-1.1,1.1-1.9,1.2l2.6,4.4L-747.9-197.2z
			 M-750.5-203.6h1.6c0.3,0,0.7-0.1,1-0.3c0.2-0.2,0.3-0.6,0.3-0.9c0-0.3-0.1-0.6-0.3-0.9c-0.3-0.2-0.6-0.3-1-0.3h-1.6L-750.5-203.6
			z"/>
		<path id="Path_6361-5" class="st17" d="M-738.9-206c0.5-0.3,1-0.4,1.6-0.4c0.7,0,1.4,0.2,2,0.6c0.6,0.4,1.1,1,1.4,1.6
			c0.4,0.8,0.5,1.6,0.5,2.4c0,0.8-0.2,1.7-0.5,2.5c-0.3,0.7-0.8,1.2-1.4,1.6c-0.6,0.4-1.3,0.6-2,0.6c-0.6,0-1.1-0.1-1.6-0.4
			c-0.4-0.2-0.8-0.6-1.1-1v5.6h-3.2v-13.3h3.2v1.3C-739.6-205.4-739.3-205.8-738.9-206z M-737.1-203.1c-0.6-0.6-1.7-0.7-2.3,0
			c0,0,0,0,0,0c-0.3,0.4-0.5,0.9-0.5,1.4c0,0.5,0.1,1,0.5,1.4c0.6,0.6,1.6,0.7,2.3,0.1c0,0,0,0,0.1-0.1c0.3-0.4,0.5-0.9,0.5-1.4
			C-736.6-202.3-736.8-202.8-737.1-203.1z"/>
	</g>
</g>
<path id="Rectangle_950" class="st11" d="M85,571.4v10c0,8.3-6.7,15-15,15H60c-8.3,0-15-6.7-15-15v-10c0-8.3,6.7-15,15-15h10
	C78.3,556.4,85,563.1,85,571.4z"/>
<path id="Rectangle_951" class="st11" d="M40,571.4v36c0,8.3-6.7,15-15,15H15c-8.3,0-15-6.7-15-15v-36c0-8.3,6.7-15,15-15h10
	C33.3,556.4,40,563.1,40,571.4z"/>
<g id="Group_69297" transform="translate(-14.311 18)">
	<path id="bench" class="st18" d="M180.6,609.2c0,1.3,0.4,2,1.7,2c0.4,0,0.8-0.1,1.1-0.1c4.9-1,6.3-0.8,6.3-30.2
		c0-4.7-0.2-5.6-0.2-7.3c0-1.7,4.5-51.4,4.7-55.2c0.1-1.6,0.5-2.9,2.3-2.9c0.5,0,1,0.1,1.4,0.2c1.1,0.3,80.2,4.8,80.4,4.8
		c1.1,0,1.1,0.8,1.1,1.7v0.2c0,4,0.3,21.5,0.3,24.3c0.2,0.2,0.3,0.4,0.3,0.6c0,0.2-0.1,0.4-0.3,0.6c0.5,35,0.4,24.3,0.6,36.9
		c0.2,0.3,0.2,0.6,0.2,1c0,0.3,0,0.6,0,0.9c0,3,0.3,3,2.2,5.2c0.8,0.9,0.8,2.4,2.2,3.1c0.2,0.2,0.4,0.3,0.6,0.5
		c0.3,0.2,0.4,0.6,0.4,0.9c0,0.3-0.1,0.7-0.1,1c0,0.3,0.1,0.6,0.3,0.8l0,0c0.4,0.2,0.7,0.3,1.1,0.3c0.4,0,0.7-0.3,0.7-1.2
		c0-0.2,0-0.4,0-1c0-1.4,0.1-2.8,0.4-4.2l0.1-20.1c-0.2-1.8-0.4-3.6-0.4-5.3c0-1,0.1-2.1,0.3-3.1c0,0,0,0,0-0.1
		c0-0.3,0.5-0.4,0.5-0.7c0-0.1-0.1-0.2-0.4-0.4c-1-0.3-1.3-0.5-1.3-0.8c0-0.5,1-0.9,1.3-1.4c0-3.1-0.1-6.2-0.1-9.2
		c0-4,0.2-4.9,0.2-12.2s-0.2-14.7-0.2-22c0-8,0.3-12.2,0.3-30.9c0-5.1,0-7.1,0-9.2c0-4.7,0.1-9.5,0.1-14.2c0-9.8-0.4-13.6-0.4-14.4
		c0-1.3,0.3-2.6,0.3-3.9c0-0.6-0.1-1.2-0.3-1.8c-0.3-0.3-0.4-0.6-0.5-1c0-0.5,0.2-0.9,0.5-1.3c0-0.3,0.5-18,0.5-18
		c0-1.8-0.4-3.7-0.4-5.5c0-0.7,0.1-1.5,0.2-2.2c0-0.2,0-0.3,0-0.5c0-0.6-0.1-1.1-0.3-1.6c0.1-1.8,0.2-3.6,0.2-5.4
		c0-2.5-0.1-5.1-0.1-7.6c0-5.4,0.3-5.7,0.3-8.5c0-3.4-0.5-6.8-0.5-10.2c-0.1-4.7,0-9.4,0.4-14.1c0-1.3-0.6-2.1-0.6-6.1
		c0-3.6,0.5-7.1,0.5-10.7c0-1.5-0.3-8.9-0.3-15.6c0-2.1,0-3.2,0-3.5c0-2.1-0.5-4.2-0.5-6.3c0-4,1.4-3.9,1.7-3.9c0.3,0,0.5,0,0.8,0.1
		c3.1,0.9,6.5,0.2,9.6,1.2c0.2,0.1,0.3,0.1,0.5,0.1c0.2,0,0.3-0.1,0.3-0.3c0,0,0-0.1,0-0.1c0-0.2-0.1-0.4-0.1-0.6
		c0-0.3,2.4-10.6,2.4-13.8c0-1.2-0.6-1.5-2-1.6c-3.6-0.3-7.2-0.9-10.7-0.9c-1.1,0-1.4,0-2,0c-4.5,0-0.8-1-16.6-1.5
		c-0.2,0-57-4.6-69.1-4.6c-0.9,0-1.9,0-2.8,0.1c-0.4-0.1-0.8-0.2-1.3-0.2c-0.2,0-0.4,0-0.6,0c-0.5,0-0.9-0.1-1.3-0.2h-0.2
		c-4.9-0.1-9.8-0.4-14.6-1.1c-1.9,0-1.4,0.7-1.5,13.3c-0.1,0.6-0.2,1.2-0.2,1.8c0,0.5,0.2,1.1,0.5,1.5c0.5,0.8,1.3,1.2,2.2,1.2
		c0.9,0,1.8-0.3,2.7-0.3c1.8,0.3,3.6,0.4,5.3,0.4c0.7,0,1.3,0,2,0c5.3,0,6.1,0.5,6.1,1.9c0,4.5-0.8,11.7-0.8,11.8c0,1,0.5,2,0.5,3
		c0,0.8-0.3,1.5-0.9,1.9c0.2,0.4,0.3,0.8,0.3,1.2c0,0.3-0.1,0.7-0.3,0.9c-0.3,6.5,0.2,13-1,19.4c0,0,0,0.1,0,0.1
		c0.1,0.3,0.2,0.7,0.3,1c0.4,0.5,1.2,0.9,1.2,1.5c0,0.9-1,0.6-1,2.7v0.3c0,0.3,0,0.6-0.1,0.9c0,0.4,0.2,0.9,0.2,1.4
		c0,0.5-0.3,0.9-0.8,1c-0.1-0.1-0.2-0.2-0.3-0.3c0,0.1,0,0.2,0,0.3c-0.2,0.6,0.1,1.2-0.4,1.7c0.2,1.1,0.5,2.2,0.7,3.3
		c0,0.2,0,0.4,0,0.5c0,1.5-0.1,3.1-0.1,4.6c0,3.7,0.6,4.3,0.6,5.6c0,1.1-0.5,1.6-1.7,2.2c-0.4,0.6-0.7,1.3-0.7,2
		c0,0.9,0.2,1.8,0.2,2.7c0,1.4-0.5,1.3-0.5,3.7c0,1.3,0.2,2.6,0.2,3.8v0.1c-0.2,0.4-0.3,0.8-0.3,1.2c0,0.8,0.3,1.6,0.3,2.3
		c0,0.1,0,0.3,0,0.4c0,0.1-1.1,4.5-1.1,14.9v0.6c0.2,1.9-0.2,3.8-1.1,5.5c0.2,0.6,0.3,1.1,0.3,1.7c0,0.5-0.1,1-0.3,1.4
		c0.1,1.4,0.2,2.7,0.2,4.1c0,2.2-0.2,4.3-0.8,6.4c0.2,0.3,0.3,0.7,0.3,1c0,0.5-0.1,1-0.3,1.4c-0.5,5.6,0.1,11.2-1,16.7
		c0,0,0,0.1,0,0.1c0.1,0.3,0.2,0.6,0.4,0.9c-0.1,0.1-0.2,0.3-0.2,0.5c0,0.2,0.1,0.5,0.1,0.7c0,0.2-0.1,0.5-0.3,0.6
		c-0.1,5.2-0.9,10.5-0.9,15.7c0,1.4,0.1,1.8,0.1,3.3c0,0.2-7.2,115.3-8.6,119.9c0.2,0.6,0.3,1.1,0.3,1.7c0,0.5-0.1,1-0.3,1.4
		C180.6,610.3,180.6,608.9,180.6,609.2z M198.1,374.6c-0.6-1.8-0.5-1.7-0.5-1.8c0-0.3,0.1-0.4,0.3-0.4c0.1,0,0.7,0.1,0.7,0.6
		C198.6,373.3,198.2,373.9,198.1,374.6z M196,508.9l11.9-193.2l69.9,3.7l2.1,193.9L196,508.9z"/>
	<path id="bench-2" class="st18" d="M180.8,609.2c0,1.3,0.5,2,2.4,2c0.5,0,1.1-0.1,1.6-0.1c6.8-1,8.8-0.8,8.8-30.2
		c0-4.7-0.3-5.6-0.3-7.3c0-1.7,6.2-51.4,6.5-55.2c0.1-1.6,0.8-2.9,3.2-2.9c0.7,0,1.3,0.1,2,0.2c1.5,0.3,111.4,4.8,111.7,4.8
		c1.5,0,1.5,0.8,1.5,1.7v0.2c0,4,0.4,21.5,0.5,24.3c0.2,0.1,0.4,0.3,0.4,0.6c0,0.3-0.2,0.5-0.4,0.6c0.8,35,0.5,24.3,0.8,36.9
		c0.2,0.3,0.3,0.6,0.3,1c0,0.3,0,0.6,0,0.9c0,3,0.4,3,3.1,5.2c1.1,0.9,1.1,2.4,3,3.1c0.3,0.2,0.5,0.3,0.8,0.5
		c0.4,0.2,0.6,0.5,0.6,0.9c0,0.3-0.1,0.7-0.1,1c0,0.3,0.2,0.7,0.5,0.8l0,0c0.5,0.2,1,0.3,1.6,0.3c0.6,0,0.9-0.3,0.9-1.2
		c0-0.2,0-0.4,0-1c0-1.4,0.2-2.8,0.6-4.2l0.2-20.1c-0.3-1.8-0.5-3.5-0.6-5.3c0-1,0.1-2.1,0.4-3.1c0,0,0,0,0-0.1
		c0-0.3,0.8-0.4,0.8-0.7c0-0.1-0.1-0.2-0.5-0.4c-1.4-0.3-1.8-0.5-1.8-0.8c0-0.5,1.3-0.9,1.8-1.4c0-3.1-0.2-6.2-0.2-9.2
		c0-4,0.2-4.9,0.2-12.2s-0.3-14.7-0.3-22c0-8,0.4-12.2,0.4-30.9c0-5.1,0-7.1,0-9.2c0-4.7,0.1-9.5,0.1-14.2c0-9.8-0.6-13.6-0.6-14.4
		c0-1.3,0.5-2.6,0.5-3.9c0-0.6-0.1-1.2-0.4-1.8c-0.4-0.2-0.6-0.6-0.6-1c0.1-0.5,0.3-0.9,0.6-1.3c0-0.3,0.7-18,0.7-18
		c0-1.8-0.5-3.7-0.5-5.5c0-0.7,0.1-1.5,0.3-2.2c0-0.2,0.1-0.3,0.1-0.5c0-0.6-0.2-1.1-0.4-1.6c0.2-1.8,0.2-3.6,0.2-5.4
		c0-2.5-0.1-5.1-0.1-7.6c0-5.4,0.4-5.7,0.4-8.5c0-3.4-0.7-6.8-0.7-10.2c0-11.5,0.6-13.4,0.6-14.1c0-1.3-0.8-2.1-0.8-6.1
		c0-3.6,0.7-7.1,0.7-10.7c0-1.5-0.4-8.9-0.4-15.6c0-2.1,0-3.2,0-3.5c0-2.1-0.7-4.2-0.7-6.3c0-4,1.9-3.9,2.4-3.9c0.4,0,0.7,0,1.1,0.1
		c4.3,0.9,9,0.2,13.3,1.2c0.2,0.1,0.4,0.1,0.7,0.1c0.4,0,0.5-0.2,0.5-0.3c0-0.2-0.1-0.4-0.1-0.6c0-0.3,3.3-10.6,3.3-13.8
		c0-1.2-0.8-1.5-2.8-1.6c-4.9-0.3-10-0.9-14.8-0.9c-1.6,0-1.9,0-2.8,0c-6.3,0-1.1-1-23.1-1.5c-0.3,0-79.1-4.6-96-4.6
		c-1.3,0-2.6,0-3.9,0.1c-0.6-0.1-1.2-0.2-1.8-0.2c-0.3,0-0.5,0-0.8,0c-0.6,0-1.3,0-1.9-0.2h-0.3c-11,0-19.3-1.1-20.3-1.1
		c-2.6,0-1.9,0.7-2.1,13.3c-0.2,0.6-0.3,1.2-0.3,1.8c0,0.6,0.3,1.1,0.7,1.5c0.8,0.8,2,1.3,3.1,1.2c1.2,0,2.5-0.3,3.8-0.3
		c2.5,0.3,4.9,0.4,7.4,0.4c0.9,0,1.8,0,2.7,0c7.3,0,8.4,0.5,8.4,1.9c-0.2,4-0.5,7.9-1.2,11.8c0,1,0.6,2,0.6,3c0,0.8-0.5,1.6-1.3,1.9
		c0.3,0.3,0.4,0.7,0.5,1.2c0,0.4-0.2,0.7-0.5,0.9c-0.5,6.5,0.3,13-1.4,19.4c0,0,0,0.1,0,0.1c0,0.3,0.3,0.6,0.5,1
		c0.6,0.5,1.7,0.9,1.7,1.5c0,0.9-1.4,0.6-1.4,2.7v0.3c0,0.3,0,0.6-0.1,0.9c0,0.4,0.3,0.9,0.3,1.4c0,0.4-0.2,0.8-1.1,1
		c-0.2-0.1-0.3-0.2-0.4-0.3c0,0.1,0,0.2-0.1,0.3c-0.3,0.6,0.1,1.2-0.6,1.7c0.3,1.1,0.7,2.2,1,3.3c0,0.2,0,0.4,0,0.5
		c0,1.5-0.1,3.1-0.1,4.6c0,3.7,0.8,4.3,0.8,5.6c0,1.1-0.7,1.6-2.4,2.2c-0.6,0.5-0.9,1.2-0.9,2c0,0.9,0.3,1.8,0.3,2.7
		c0,1.4-0.7,1.3-0.7,3.7c0,1.3,0.2,2.6,0.2,3.8v0.1c-0.3,0.3-0.4,0.7-0.4,1.2c0,0.8,0.4,1.6,0.4,2.3c0,0.1,0,0.3,0,0.4
		c0,0.1-1.6,4.5-1.6,14.9v0.6c0,1.9-0.1,3.7-1.5,5.5c0.2,0.6,0.4,1.1,0.4,1.7c0,0.5-0.1,1-0.4,1.4c0.2,1.3,0.3,2.7,0.3,4.1
		c0,2.2-0.3,4.3-1.1,6.4c0.3,0.3,0.5,0.6,0.5,1c0,0.5-0.2,1-0.5,1.4c-0.7,5.6,0.2,11.2-1.4,16.7c0,0,0,0.1,0,0.1
		c0,0.3,0.4,0.6,0.5,0.9c-0.2,0.1-0.3,0.3-0.3,0.5c0,0.2,0.1,0.5,0.1,0.7s-0.1,0.4-0.4,0.6c-0.1,5.2-1.2,10.5-1.2,15.7
		c0,1.4,0.1,1.8,0.1,3.3c0,0.2-10.1,115.3-12,119.9c0.2,0.5,0.4,1.1,0.4,1.7c0,0.5-0.2,1-0.5,1.4
		C180.7,610.3,180.8,608.9,180.8,609.2z M205,374.6c-0.8-1.8-0.7-1.7-0.7-1.8c0-0.2,0.2-0.4,0.4-0.4c0,0,0.1,0,0.1,0
		c0.1,0,1,0.1,1,0.6C205.7,373.3,205.1,373.9,205,374.6z M202.1,508.9l16.5-193.2l97,3.7l2.9,193.9L202.1,508.9z"/>
	<g id="Group_69293" transform="translate(909 414.919)">
		<path id="Path_6300" class="st19" d="M-688.5-136.7l79.4,33l4,1.6l46-10.7l1.3-5L-688.5-136.7z"/>
		<path id="Path_6301" class="st20" d="M-583.1-116.8l-86.3-34.4l-3.5,16.7l68.1,23.7L-583.1-116.8z"/>
		<path id="Path_6302" class="st21" d="M-607.7-109.2l-1.4,5.4l4,1.7l46-10.7l1.3-5l-43.9,10.3
			C-601.7-107.6-606.9-108.5-607.7-109.2z"/>
		<path id="Path_6303" class="st14" d="M-614.5-198.1l19.1,88.7c0.7,3.1-1.3,6.1-4.3,6.7c-0.6,0.1-1.3,0.2-1.9,0.1l-121-16
			c-2.2-0.3-4-1.8-4.6-3.8l-26.1-78.7c-1-3,0.6-6.2,3.6-7.2c0.7-0.2,1.3-0.3,2-0.3l128,6.1C-617.2-202.4-615.1-200.6-614.5-198.1z"
			/>
		
			<ellipse id="Ellipse_10374" transform="matrix(0.9945 -0.1045 0.1045 0.9945 13.6071 -71.7474)" class="st17" cx="-677.7" cy="-165.7" rx="3.3" ry="5.1"/>
	</g>
</g>
</svg>
